{"glyphs":{"0":{"ha":988,"x_min":0,"x_max":0,"o":"m 921 486 b 493 -15 921 210 757 -15 b 67 486 228 -15 67 210 b 493 988 67 764 228 988 b 921 486 757 988 921 764 m 749 486 b 493 842 749 683 651 842 b 239 486 335 842 239 683 b 493 132 239 289 335 132 b 749 486 651 132 749 289 "},"1":{"ha":546,"x_min":0,"x_max":0,"o":"m 17 818 l 353 972 l 446 972 l 446 0 l 274 0 l 274 769 l 60 681 "},"2":{"ha":853,"x_min":0,"x_max":0,"o":"m 328 138 b 328 135 328 138 328 136 b 514 142 381 140 500 142 l 794 142 l 794 0 l 89 0 l 69 108 l 457 461 b 590 679 526 521 590 596 b 413 839 590 779 521 839 b 232 683 268 839 232 747 l 61 683 b 413 988 61 801 144 988 b 760 681 622 988 760 868 b 571 350 760 531 663 431 "},"3":{"ha":856,"x_min":0,"x_max":0,"o":"m 388 133 b 614 322 532 133 614 233 b 418 499 614 426 525 499 b 283 463 393 499 332 493 l 210 557 l 508 829 l 89 829 l 89 972 l 757 972 l 757 868 l 478 622 b 788 324 640 621 788 494 b 386 -15 788 139 639 -15 b 40 99 233 -15 117 29 l 132 210 b 388 133 233 143 304 133 "},"4":{"ha":928,"x_min":0,"x_max":0,"o":"m 515 396 l 515 707 l 233 396 m 31 251 l 31 360 l 575 972 l 688 972 l 688 396 l 890 396 l 890 251 l 688 251 l 688 0 l 515 0 l 515 251 "},"5":{"ha":850,"x_min":0,"x_max":0,"o":"m 401 133 b 626 329 553 133 626 224 b 422 504 626 411 558 504 b 210 433 350 504 265 481 l 92 482 l 122 972 l 728 972 l 728 829 l 275 829 l 257 583 l 261 583 b 460 647 314 626 396 647 b 797 329 656 647 797 499 b 404 -15 797 126 656 -15 b 58 99 260 -15 135 29 l 149 210 b 401 133 228 154 332 133 "},"6":{"ha":889,"x_min":0,"x_max":0,"o":"m 493 838 b 239 513 363 838 244 714 b 242 513 240 513 242 513 b 483 640 288 601 392 640 b 833 314 661 640 833 517 b 465 -15 833 124 683 -15 b 68 464 217 -15 68 179 b 489 988 68 754 214 988 b 793 863 617 988 728 938 l 685 764 b 493 838 633 821 550 838 m 461 499 b 257 319 338 499 257 419 b 460 133 257 217 342 133 b 660 315 569 133 660 208 b 461 499 660 425 576 499 "},"7":{"ha":772,"x_min":0,"x_max":0,"o":"m 42 972 l 754 972 l 754 861 l 290 0 l 97 0 l 557 829 l 42 829 "},"8":{"ha":917,"x_min":0,"x_max":0,"o":"m 461 571 b 639 714 582 571 639 646 b 458 842 639 785 568 842 b 279 714 349 842 279 785 b 456 571 279 646 333 571 m 458 449 b 239 290 310 449 239 374 b 458 132 239 203 326 132 b 679 290 592 132 679 203 b 464 449 679 372 608 449 l 458 449 m 458 -15 b 64 290 229 -15 64 110 b 246 521 64 385 139 485 b 104 714 163 554 104 636 b 458 988 104 875 251 988 b 813 714 665 988 813 875 b 672 521 813 636 756 554 b 853 290 779 485 853 385 b 458 -15 853 110 689 -15 "},"9":{"ha":888,"x_min":0,"x_max":0,"o":"m 394 135 b 649 460 525 135 643 258 b 646 460 647 460 646 460 b 404 332 600 371 496 332 b 54 658 226 332 54 456 b 422 988 54 849 204 988 b 819 508 671 988 819 793 b 399 -15 819 218 674 -15 b 94 110 271 -15 160 35 l 203 208 b 394 135 254 151 338 135 m 426 474 b 631 653 550 474 631 553 b 428 839 631 756 546 839 b 228 657 318 839 228 764 b 426 474 228 547 311 474 "},"J":{"ha":921,"x_min":0,"x_max":0,"o":"m 810 435 b 408 -15 810 138 664 -15 b 38 331 139 -15 38 165 b 75 471 38 371 51 436 l 240 471 b 207 342 217 425 207 368 b 407 138 207 253 265 138 b 632 435 564 138 632 246 l 632 972 l 810 972 "},"Z":{"ha":913,"x_min":0,"x_max":0,"o":"m 869 0 l 40 0 l 40 122 l 600 829 l 79 829 l 79 972 l 836 972 l 836 849 l 272 142 l 869 142 "},"K":{"ha":901,"x_min":0,"x_max":0,"o":"m 301 0 l 124 0 l 124 972 l 301 972 l 301 511 l 617 972 l 801 972 l 801 950 l 471 482 l 624 251 b 768 136 689 161 711 136 b 854 165 786 136 818 140 b 918 40 875 124 896 82 b 740 -15 867 0 796 -15 b 469 176 608 -15 524 81 l 301 439 "},"I":{"ha":428,"x_min":0,"x_max":0,"o":"m 303 0 l 125 0 l 125 972 l 303 972 "},"D":{"ha":1032,"x_min":0,"x_max":0,"o":"m 792 486 b 469 829 792 675 657 829 l 303 829 l 303 142 l 469 142 b 792 486 657 142 792 297 m 974 486 b 469 0 974 219 763 0 l 125 0 l 125 971 l 469 971 b 974 486 763 971 974 753 "},"E":{"ha":825,"x_min":0,"x_max":0,"o":"m 125 0 l 125 972 l 757 972 l 757 829 l 303 829 l 303 547 l 699 547 l 699 406 l 303 406 l 303 142 l 757 142 l 757 0 "},"":{"ha":825,"x_min":0,"x_max":0,"o":"m 757 0 l 757 142 l 303 142 l 303 406 l 699 406 l 699 547 l 303 547 l 303 829 l 757 829 l 757 972 l 125 972 l 125 0 "},"F":{"ha":810,"x_min":0,"x_max":0,"o":"m 125 0 l 125 972 l 757 972 l 757 829 l 303 829 l 303 547 l 699 547 l 699 406 l 303 406 l 303 0 "},"A":{"ha":961,"x_min":0,"x_max":0,"o":"m 13 0 l 388 972 l 572 972 l 950 0 l 768 0 l 694 190 l 267 190 l 196 0 m 481 792 l 317 335 l 643 335 "},"C":{"ha":957,"x_min":0,"x_max":0,"o":"m 58 486 b 589 988 58 757 260 988 b 924 874 736 988 833 942 l 853 740 b 590 829 785 790 694 829 b 240 486 369 829 240 675 b 590 143 240 297 369 143 b 853 232 694 143 785 181 l 924 97 b 589 -15 833 29 736 -15 b 58 486 260 -15 58 215 "},"H":{"ha":1017,"x_min":0,"x_max":0,"o":"m 714 0 l 714 393 l 303 393 l 303 0 l 125 0 l 125 972 l 303 972 l 303 535 l 714 535 l 714 972 l 892 972 l 892 0 "},"L":{"ha":769,"x_min":0,"x_max":0,"o":"m 744 142 l 744 0 l 125 0 l 125 972 l 303 972 l 303 142 "},"P":{"ha":882,"x_min":0,"x_max":0,"o":"m 125 0 l 125 972 l 533 972 b 838 660 728 972 838 828 b 533 356 838 493 726 356 l 303 356 l 303 0 m 506 496 b 656 661 599 496 656 564 b 506 829 656 761 599 829 l 303 829 l 303 496 "}," ":{"ha":353,"x_min":0,"x_max":0,"o":""}," ":{"ha":353,"x_min":0,"x_max":0,"o":""},"Y":{"ha":978,"x_min":0,"x_max":0,"o":"m 750 972 l 949 972 l 949 954 l 578 399 l 578 0 l 400 0 l 400 397 l 29 954 l 29 972 l 228 972 l 488 556 "},"T":{"ha":831,"x_min":0,"x_max":0,"o":"m 803 972 l 803 829 l 503 829 l 503 0 l 325 0 l 325 829 l 28 829 l 28 972 "},"B":{"ha":918,"x_min":0,"x_max":0,"o":"m 814 714 b 640 500 814 622 757 535 b 860 265 776 482 860 376 b 525 0 860 106 725 0 l 125 0 l 125 972 l 482 972 b 814 714 672 972 814 875 m 303 424 l 303 142 l 525 142 b 678 269 613 142 678 192 b 450 424 678 347 628 424 m 424 553 b 632 704 585 553 632 631 b 482 829 632 788 561 829 l 303 829 l 303 553 "},"":{"ha":918,"x_min":0,"x_max":0,"o":"m 814 714 b 482 972 814 875 672 972 l 125 972 l 125 0 l 525 0 b 860 265 725 0 860 106 b 640 500 860 376 776 482 b 814 714 757 535 814 622 m 450 424 b 678 269 628 424 678 347 b 525 142 678 192 613 142 l 303 142 l 303 424 m 303 553 l 303 829 l 482 829 b 632 704 561 829 632 788 b 424 553 632 631 585 553 "},"U":{"ha":1011,"x_min":0,"x_max":0,"o":"m 899 972 l 899 364 b 506 -15 899 115 718 -15 b 113 364 292 -15 113 115 l 113 972 l 290 972 l 290 364 b 506 138 290 213 389 138 b 721 364 621 138 721 213 l 721 972 "},"G":{"ha":1022,"x_min":0,"x_max":0,"o":"m 581 828 b 240 483 363 828 240 660 b 582 146 240 301 365 146 b 786 196 656 146 726 163 l 786 365 l 526 365 l 526 507 l 950 507 l 950 126 b 579 -15 815 6 672 -15 b 58 485 279 -15 58 210 b 576 988 58 760 275 988 b 929 871 718 988 826 949 l 849 738 b 581 828 753 801 671 828 "},"N":{"ha":1043,"x_min":0,"x_max":0,"o":"m 303 656 l 303 0 l 125 0 l 125 972 l 260 972 l 740 321 l 740 972 l 918 972 l 918 0 l 785 0 "},"M":{"ha":1313,"x_min":0,"x_max":0,"o":"m 596 11 l 318 679 l 260 0 l 82 0 l 172 972 l 358 972 l 657 257 l 954 972 l 1140 972 l 1232 0 l 1054 0 l 994 679 l 717 11 "},"S":{"ha":813,"x_min":0,"x_max":0,"o":"m 203 285 b 404 142 224 201 299 142 b 579 265 506 142 579 188 b 451 394 579 322 538 364 l 326 438 b 88 711 122 506 88 629 b 410 988 88 882 232 988 b 732 765 572 988 688 903 l 582 703 b 410 829 549 801 481 829 b 265 714 331 829 265 790 b 381 593 265 681 275 631 l 506 547 b 756 272 694 488 754 368 b 408 -15 756 85 596 -15 b 42 249 218 -15 68 92 "},"":{"ha":813,"x_min":0,"x_max":0,"o":"m 42 249 b 408 -15 68 92 218 -15 b 756 272 596 -15 756 85 b 506 547 754 368 694 488 l 381 593 b 265 714 275 631 265 681 b 410 829 265 790 331 829 b 582 703 481 829 549 801 l 732 765 b 410 988 688 903 572 988 b 88 711 232 988 88 882 b 326 438 88 629 122 506 l 451 394 b 579 265 538 364 579 322 b 404 142 579 188 506 142 b 203 285 299 142 224 201 "},".":{"ha":372,"x_min":0,"x_max":0,"o":"m 69 94 b 186 207 69 158 119 207 b 303 94 251 207 303 158 b 186 -15 303 32 251 -15 b 69 94 119 -15 69 32 "},"!":{"ha":381,"x_min":0,"x_max":0,"o":"m 293 951 l 250 314 l 131 314 l 88 951 l 88 972 l 293 972 m 75 94 b 192 207 75 158 125 207 b 308 94 257 207 308 158 b 192 -15 308 32 257 -15 b 75 94 125 -15 75 32 "},"X":{"ha":961,"x_min":0,"x_max":0,"o":"m 207 0 l 1 0 l 1 17 l 379 514 l 39 950 l 39 972 l 240 972 l 481 650 l 721 972 l 922 972 l 922 950 l 582 514 l 960 17 l 960 0 l 754 0 l 481 371 "},"V":{"ha":918,"x_min":0,"x_max":0,"o":"m 374 0 b 33 972 261 324 146 649 l 218 972 l 460 226 l 701 972 l 886 972 l 544 0 l 374 0 "},"R":{"ha":965,"x_min":0,"x_max":0,"o":"m 515 499 b 665 661 607 499 665 565 b 515 825 665 756 606 825 l 301 825 l 301 499 m 846 660 b 628 367 846 518 764 401 b 800 139 644 263 697 139 b 907 182 842 139 881 157 l 969 60 b 775 -15 914 11 857 -15 b 465 357 546 -15 475 246 l 301 357 l 301 0 l 124 0 l 124 972 l 543 972 b 846 660 736 972 846 826 "},"W":{"ha":1379,"x_min":0,"x_max":0,"o":"m 957 304 l 1164 972 l 1343 972 l 1039 0 l 894 0 l 690 660 l 486 0 l 340 0 l 36 972 l 215 972 l 422 304 l 622 940 l 758 940 "},"i":{"ha":371,"x_min":0,"x_max":0,"o":"m 100 0 l 100 703 l 271 703 l 271 0 m 75 911 b 186 1019 75 972 122 1019 b 300 911 250 1019 300 972 b 186 804 300 850 250 804 b 75 911 122 804 75 850 "},"l":{"ha":371,"x_min":0,"x_max":0,"o":"m 100 0 l 100 1004 l 271 1004 l 271 0 "},"o":{"ha":860,"x_min":0,"x_max":0,"o":"m 49 351 b 429 718 49 554 226 718 b 811 351 635 718 811 553 b 429 -15 811 149 635 -15 b 49 351 226 -15 49 147 m 221 351 b 429 131 221 228 311 131 b 639 351 549 131 639 228 b 429 572 639 474 549 572 b 221 351 311 572 221 475 "},"r":{"ha":533,"x_min":0,"x_max":0,"o":"m 265 547 b 457 718 289 667 382 718 b 515 708 481 718 494 714 l 515 540 b 435 554 489 550 457 554 b 268 325 372 554 268 519 l 268 0 l 97 0 l 97 703 l 265 703 "},"h":{"ha":843,"x_min":0,"x_max":0,"o":"m 97 1004 l 268 1004 l 268 585 b 494 718 313 676 394 718 b 756 389 669 718 756 592 l 756 0 l 585 0 l 585 388 b 447 574 585 510 532 574 b 268 351 364 574 268 511 l 268 0 l 97 0 "},"t":{"ha":607,"x_min":0,"x_max":0,"o":"m 308 703 l 518 703 l 518 572 l 308 572 l 308 204 b 376 128 308 161 326 128 b 446 200 418 128 446 157 b 436 258 446 215 443 243 l 576 258 b 592 179 589 232 592 192 b 369 -15 592 76 521 -15 b 138 228 253 -15 138 35 l 138 572 l 28 572 l 28 703 l 146 703 l 176 890 l 308 890 "},"a":{"ha":904,"x_min":0,"x_max":0,"o":"m 807 703 l 807 0 l 636 0 l 636 106 b 396 -15 586 29 499 -15 b 51 354 188 -15 51 149 b 397 718 51 553 182 718 b 636 599 492 718 579 679 l 636 703 m 224 353 b 431 128 224 228 303 128 b 640 346 547 128 640 207 b 426 575 640 482 553 575 b 224 353 297 575 224 474 "},"d":{"ha":904,"x_min":0,"x_max":0,"o":"m 224 353 b 431 128 224 228 303 128 b 639 346 547 128 639 207 b 425 575 639 482 553 575 b 224 353 296 575 224 474 m 807 1004 l 807 0 l 636 0 l 636 106 b 394 -15 585 29 497 -15 b 51 354 188 -15 51 149 b 396 718 51 553 181 718 b 636 599 490 718 578 679 l 636 1004 "},"b":{"ha":903,"x_min":0,"x_max":0,"o":"m 851 354 b 507 -15 851 149 715 -15 b 267 106 404 -15 317 29 l 267 0 l 96 0 l 96 1004 l 267 1004 l 267 599 b 506 718 324 679 411 718 b 851 354 721 718 851 553 m 679 353 b 476 575 679 474 606 575 b 264 346 350 575 264 482 b 472 128 264 207 356 128 b 679 353 600 128 679 228 "},"":{"ha":903,"x_min":0,"x_max":0,"o":"m 851 354 b 506 718 851 553 721 718 b 267 599 411 718 324 679 l 267 1004 l 96 1004 l 96 0 l 267 0 l 267 106 b 507 -15 317 29 404 -15 b 851 354 715 -15 851 149 m 679 353 b 472 128 679 228 600 128 b 264 346 356 128 264 207 b 476 575 264 482 350 575 b 679 353 606 575 679 474 "},"e":{"ha":840,"x_min":0,"x_max":0,"o":"m 771 119 b 453 -15 676 14 561 -15 b 49 349 200 -15 49 149 b 433 718 49 554 211 718 b 803 328 624 718 803 599 l 219 328 b 461 129 219 217 310 129 b 674 215 549 129 614 161 m 433 582 b 228 443 358 582 264 551 l 628 443 b 433 582 601 551 506 582 "},"j":{"ha":424,"x_min":0,"x_max":0,"o":"m 153 703 l 324 703 l 324 -104 b 92 -333 324 -272 210 -333 b -129 -139 -60 -333 -129 -242 b -119 -82 -129 -133 -128 -101 b 24 -82 -99 -82 4 -82 b 18 -122 18 -96 18 -115 b 85 -192 18 -165 43 -192 b 153 -117 128 -192 153 -161 m 126 911 b 238 1019 126 972 174 1019 b 351 911 301 1019 351 972 b 238 804 351 850 301 804 b 126 911 174 804 126 850 "},"f":{"ha":536,"x_min":0,"x_max":0,"o":"m 318 703 l 489 703 l 489 572 l 318 572 l 318 0 l 144 0 l 144 572 l 40 572 l 40 703 l 144 703 l 144 750 b 389 1018 144 965 271 1018 b 606 825 540 1018 606 926 b 599 786 606 821 604 800 l 461 786 b 465 810 464 793 465 803 b 396 876 465 854 438 876 b 318 776 353 876 318 843 "},"w":{"ha":1144,"x_min":0,"x_max":0,"o":"m 507 683 l 636 683 l 781 232 l 932 703 l 1117 703 l 864 0 l 711 0 l 572 443 l 432 0 l 281 0 l 28 703 l 211 703 l 364 232 "},"c":{"ha":747,"x_min":0,"x_max":0,"o":"m 49 347 b 444 718 49 556 196 718 b 715 624 513 718 607 703 l 636 501 b 453 565 564 561 479 565 b 221 351 317 565 221 478 b 453 138 221 226 317 138 b 636 201 479 138 564 143 l 715 81 b 444 -15 607 0 513 -15 b 49 347 200 -15 49 143 "},"p":{"ha":904,"x_min":0,"x_max":0,"o":"m 97 -318 l 97 703 l 268 703 l 268 597 b 508 718 318 674 406 718 b 853 349 717 718 853 554 b 507 -15 853 150 722 -15 b 268 104 413 -15 325 24 l 268 -318 m 681 350 b 474 575 681 475 601 575 b 264 357 357 575 264 496 b 478 128 264 221 351 128 b 681 350 607 128 681 229 "},"q":{"ha":900,"x_min":0,"x_max":0,"o":"m 635 -318 l 635 104 b 394 -15 576 24 489 -15 b 50 349 179 -15 50 150 b 393 718 50 554 186 718 b 635 597 496 718 583 674 l 635 703 l 806 703 l 806 -318 m 222 350 b 424 128 222 229 294 128 b 639 357 551 128 639 221 b 429 575 639 496 546 575 b 222 350 301 575 222 475 "},"n":{"ha":843,"x_min":0,"x_max":0,"o":"m 97 703 l 268 703 l 268 585 b 496 718 313 676 396 718 b 756 389 671 718 756 592 l 756 0 l 585 0 l 585 388 b 449 574 585 510 533 574 b 268 351 349 574 268 499 l 268 0 l 97 0 "},"z":{"ha":792,"x_min":0,"x_max":0,"o":"m 747 0 l 42 0 l 42 103 l 476 568 l 67 568 l 67 703 l 721 703 l 721 600 b 286 136 575 446 432 290 l 747 136 "},"u":{"ha":843,"x_min":0,"x_max":0,"o":"m 746 0 l 575 0 l 575 118 b 349 -15 531 26 449 -15 b 88 314 174 -15 88 111 l 88 703 l 258 703 l 258 315 b 394 135 258 201 303 135 b 575 399 474 135 575 200 l 575 703 l 746 703 "},"v":{"ha":793,"x_min":0,"x_max":0,"o":"m 486 0 l 307 0 l 24 703 l 208 703 l 396 190 l 585 703 l 769 703 "},"m":{"ha":1274,"x_min":0,"x_max":0,"o":"m 557 388 b 426 574 557 510 508 574 b 268 360 349 574 272 514 l 268 0 l 97 0 l 97 703 l 268 703 l 268 585 b 475 718 306 671 385 718 b 694 586 563 718 649 683 b 925 718 750 699 849 718 b 1186 389 1107 718 1186 592 l 1186 0 l 1015 0 l 1015 388 b 885 574 1015 510 967 574 b 726 360 807 574 731 514 l 726 0 l 557 0 "},"k":{"ha":789,"x_min":0,"x_max":0,"o":"m 488 703 l 676 703 l 676 682 l 432 381 l 538 217 b 647 139 574 164 596 139 b 731 164 663 139 703 143 l 792 46 b 624 -15 733 -11 658 -15 b 408 113 517 -15 457 43 l 267 340 l 267 0 l 96 0 l 96 1004 l 267 1004 l 267 413 "},"s":{"ha":642,"x_min":0,"x_max":0,"o":"m 171 224 b 321 122 189 154 257 122 b 426 196 371 122 426 140 b 350 271 426 232 393 253 l 247 310 b 71 506 107 363 71 442 b 328 718 71 636 182 718 b 574 561 417 718 528 688 l 436 511 b 329 583 418 568 367 583 b 238 510 285 583 238 558 b 311 438 238 471 272 451 l 415 400 b 594 199 565 350 594 260 b 319 -15 594 60 465 -15 b 36 167 206 -15 76 32 "},"":{"ha":642,"x_min":0,"x_max":0,"o":"m 36 167 b 319 -15 76 32 206 -15 b 594 199 465 -15 594 60 b 415 400 594 260 565 350 l 311 438 b 238 510 272 451 238 471 b 329 583 238 558 285 583 b 436 511 367 583 418 568 l 574 561 b 328 718 528 688 417 718 b 71 506 182 718 71 636 b 247 310 71 442 107 363 l 350 271 b 426 196 393 253 426 232 b 321 122 426 140 371 122 b 171 224 257 122 189 154 "},"y":{"ha":797,"x_min":0,"x_max":0,"o":"m 588 703 l 779 703 l 343 -318 l 175 -318 l 318 42 l 19 703 l 213 703 l 404 221 "},"":{"ha":797,"x_min":0,"x_max":0,"o":"m 404 221 l 213 703 l 19 703 l 318 42 l 175 -318 l 343 -318 l 779 703 l 588 703 "},"x":{"ha":817,"x_min":0,"x_max":0,"o":"m 208 0 l 11 0 l 11 17 l 301 364 l 33 689 l 33 703 l 231 703 l 408 476 l 586 703 l 783 703 l 783 689 l 515 364 l 806 17 l 806 0 l 608 0 l 408 250 "},"g":{"ha":903,"x_min":0,"x_max":0,"o":"m 224 353 b 431 128 224 228 303 128 b 640 346 547 128 640 207 b 426 575 640 482 553 575 b 224 353 297 575 224 474 m 115 -233 b 183 -100 139 -189 161 -144 b 413 -185 239 -149 328 -185 b 636 22 533 -185 636 -129 l 636 104 b 396 -15 588 31 494 -15 b 51 354 188 -15 51 149 b 397 718 51 553 182 718 b 636 599 492 718 579 679 l 636 703 l 807 703 l 807 76 b 433 -333 807 -214 656 -333 b 115 -233 281 -333 185 -290 "},":":{"ha":411,"x_min":0,"x_max":0,"o":"m 89 94 b 206 207 89 158 139 207 b 322 94 271 207 322 158 b 206 -15 322 32 271 -15 b 89 94 139 -15 89 32 m 89 606 b 206 718 89 669 139 718 b 322 606 271 718 322 669 b 206 496 322 543 271 496 b 89 606 139 496 89 543 "},"´":{"ha":739,"x_min":0,"x_max":0,"o":"m 493 1022 l 313 799 l 179 799 l 308 1022 "},"`":{"ha":739,"x_min":0,"x_max":0,"o":"m 364 1022 l 493 799 l 358 799 l 179 1022 "},"ı":{"ha":371,"x_min":0,"x_max":0,"o":"m 100 0 l 100 703 l 271 703 l 271 0 "},"”":{"ha":660,"x_min":0,"x_max":0,"o":"m 78 685 b 182 818 153 711 182 761 b 76 903 118 806 78 856 b 183 1004 74 957 110 1004 b 290 879 269 1004 290 921 b 114 621 290 763 235 660 m 390 685 b 494 818 465 711 494 761 b 389 903 431 806 390 856 b 496 1004 386 957 422 1004 b 603 879 582 1004 603 921 b 425 621 603 763 546 660 "},"’":{"ha":347,"x_min":0,"x_max":0,"o":"m 78 685 b 183 818 154 711 183 761 b 76 903 119 806 78 856 b 185 1004 75 957 111 1004 b 290 879 271 1004 290 921 b 114 621 290 763 235 660 "},"“":{"ha":663,"x_min":0,"x_max":0,"o":"m 589 940 b 483 807 513 914 483 863 b 590 721 547 819 589 768 b 482 621 592 668 556 621 b 376 744 396 621 376 704 b 553 1003 376 861 432 965 m 276 940 b 171 807 200 914 171 863 b 278 721 235 819 276 768 b 169 621 279 668 243 621 b 64 744 83 621 64 704 b 242 1003 64 861 121 965 "},"‘":{"ha":350,"x_min":0,"x_max":0,"o":"m 276 940 b 171 807 200 914 171 863 b 278 721 235 819 276 768 b 169 621 279 668 243 621 b 64 744 83 621 64 704 b 242 1003 64 861 121 965 "},",":{"ha":357,"x_min":0,"x_max":0,"o":"m 54 -140 b 178 17 131 -114 178 -39 b 71 103 114 4 72 56 b 179 203 69 156 106 203 b 285 79 265 203 285 119 b 90 -203 285 -37 211 -165 "},";":{"ha":411,"x_min":0,"x_max":0,"o":"m 89 606 b 206 718 89 669 139 718 b 322 606 271 718 322 669 b 206 496 322 543 271 496 b 89 606 139 496 89 543 m 82 -136 b 206 18 157 -110 206 -39 b 96 107 139 6 97 58 b 207 211 93 163 131 211 b 317 83 296 211 317 125 b 118 -199 317 -37 239 -161 "},"œ":{"ha":1299,"x_min":0,"x_max":0,"o":"m 1231 119 b 913 -15 1136 14 1021 -15 b 654 65 804 -15 718 14 b 426 -15 592 15 514 -15 b 47 351 224 -15 47 147 b 426 718 47 554 224 718 b 656 638 514 718 593 688 b 893 718 717 688 797 718 b 1261 328 1083 718 1261 599 l 700 328 b 921 129 700 217 769 129 b 1133 215 1008 129 1074 161 m 218 351 b 426 131 218 228 308 131 b 563 183 479 131 526 151 b 528 349 539 233 528 289 b 564 517 528 410 540 467 b 426 572 529 551 481 572 b 218 351 308 572 218 475 m 893 582 b 706 443 818 582 742 551 l 1088 443 b 893 582 1061 551 965 582 "},"…":{"ha":1182,"x_min":0,"x_max":0,"o":"m 69 94 b 186 207 69 158 119 207 b 303 94 251 207 303 158 b 186 -15 303 32 251 -15 b 69 94 119 -15 69 32 m 475 94 b 590 207 475 158 525 207 b 708 94 656 207 708 158 b 590 -15 708 32 656 -15 b 475 94 525 -15 475 32 m 879 94 b 996 207 879 158 929 207 b 1113 94 1061 207 1113 158 b 996 -15 1113 32 1061 -15 b 879 94 929 -15 879 32 "},"•":{"ha":563,"x_min":0,"x_max":0,"o":"m 104 349 b 281 526 104 446 179 526 b 458 349 382 526 458 446 b 281 171 458 251 382 171 b 104 349 179 171 104 249 "},"(":{"ha":451,"x_min":0,"x_max":0,"o":"m 424 1008 b 222 383 356 910 222 675 b 424 -242 222 94 356 -142 l 315 -306 b 56 385 235 -221 56 51 b 315 1074 56 717 235 988 l 424 1008 "},")":{"ha":451,"x_min":0,"x_max":0,"o":"m 136 1074 b 396 385 217 988 396 717 b 136 -306 396 51 217 -221 l 28 -242 b 229 383 96 -142 229 94 b 28 1008 229 675 96 910 "},"#":{"ha":1058,"x_min":0,"x_max":0,"o":"m 1011 772 l 981 644 l 796 644 l 724 353 l 910 353 l 875 224 l 693 224 l 636 0 l 492 0 l 549 224 l 376 224 l 319 0 l 178 0 l 233 224 l 46 224 l 76 353 l 265 353 l 338 644 l 150 644 l 185 772 l 372 772 l 422 972 l 563 972 l 511 772 l 688 772 l 735 972 l 879 972 l 826 772 m 407 353 l 579 353 l 653 644 l 479 644 "},"ð":{"ha":839,"x_min":0,"x_max":0,"o":"m 231 714 l 196 794 l 321 850 b 217 935 304 864 233 922 l 346 1024 b 472 915 388 990 431 954 l 628 983 l 669 903 l 540 847 b 788 340 679 699 788 521 b 425 -15 788 114 615 -15 b 50 340 214 -15 50 140 b 386 669 50 544 221 669 b 519 638 410 669 488 665 b 393 785 489 686 446 735 m 222 340 b 419 131 222 222 307 131 b 615 343 544 131 615 219 b 424 540 615 460 543 540 b 222 340 304 540 222 458 "},"ˆ":{"ha":875,"x_min":0,"x_max":0,"o":"m 524 1022 l 679 799 l 553 799 l 438 926 l 321 799 l 196 799 l 350 1022 "},"ˇ":{"ha":865,"x_min":0,"x_max":0,"o":"m 346 799 l 190 1022 l 317 1022 l 432 894 l 549 1022 l 674 1022 l 518 799 "},"ˉ":{"ha":732,"x_min":0,"x_max":0,"o":"m 572 963 l 572 838 l 160 838 l 160 963 "},"¯":{"ha":774,"x_min":0,"x_max":0,"o":"m 593 963 l 593 838 l 181 838 l 181 963 "},"¨":{"ha":901,"x_min":0,"x_max":0,"o":"m 186 911 b 290 1011 186 968 231 1011 b 394 911 349 1011 394 968 b 290 813 394 856 349 813 b 186 911 231 813 186 856 m 507 911 b 610 1011 507 968 551 1011 b 715 911 669 1011 715 968 b 610 813 715 856 669 813 b 507 911 551 813 507 856 "},"˙":{"ha":464,"x_min":0,"x_max":0,"o":"m 125 907 b 232 1011 125 965 171 1011 b 339 907 292 1011 339 965 b 232 806 339 850 292 806 b 125 907 171 806 125 850 "},"˚":{"ha":568,"x_min":0,"x_max":0,"o":"m 125 944 b 283 1099 125 1033 196 1099 b 443 944 372 1099 443 1033 b 283 792 443 857 372 792 b 125 944 196 792 125 857 m 207 944 b 283 869 207 901 240 869 b 358 944 326 869 358 901 b 283 1018 358 988 326 1018 b 207 944 240 1018 207 988 "},"˘":{"ha":658,"x_min":0,"x_max":0,"o":"m 324 917 b 421 1022 365 917 414 936 l 529 1011 b 324 800 515 842 406 800 b 117 1011 242 800 131 842 l 226 1022 b 324 917 233 936 281 917 "},"˝":{"ha":779,"x_min":0,"x_max":0,"o":"m 406 1022 l 263 799 l 140 799 l 267 1022 m 639 1022 l 488 799 l 363 799 l 499 1022 "},"˛":{"ha":632,"x_min":0,"x_max":0,"o":"m 329 13 b 244 -121 258 -26 244 -92 b 318 -197 244 -171 278 -197 b 419 -119 356 -197 393 -175 l 501 -161 b 303 -312 474 -244 403 -312 b 121 -153 228 -312 121 -274 b 247 32 121 -100 151 -21 b 329 32 247 32 329 32 "},"¸":{"ha":632,"x_min":0,"x_max":0,"o":"m 299 32 l 381 32 b 506 -151 476 -21 506 -99 b 324 -312 506 -272 399 -312 b 125 -160 225 -312 154 -244 l 208 -119 b 308 -197 233 -175 271 -197 b 383 -121 350 -197 383 -167 b 299 13 383 -92 369 -26 "},"˜":{"ha":689,"x_min":0,"x_max":0,"o":"m 582 982 b 442 825 554 879 517 825 b 258 876 372 825 303 876 b 188 813 221 876 207 857 l 106 838 b 246 994 133 940 171 994 b 429 943 315 994 385 943 b 500 1007 467 943 481 963 l 582 982 "},"à":{"ha":903,"x_min":0,"x_max":0,"o":"m 806 703 l 806 0 l 635 0 l 635 106 b 394 -15 585 29 497 -15 b 50 354 186 -15 50 149 b 396 718 50 553 181 718 b 635 599 490 718 578 679 l 635 703 m 222 353 b 429 128 222 228 301 128 b 639 346 546 128 639 207 b 425 575 639 482 551 575 b 222 353 296 575 222 474 m 397 1022 l 526 799 l 392 799 l 213 1022 "},"á":{"ha":904,"x_min":0,"x_max":0,"o":"m 807 703 l 807 0 l 636 0 l 636 106 b 396 -15 586 29 499 -15 b 51 354 188 -15 51 149 b 397 718 51 553 182 718 b 636 599 492 718 579 679 l 636 703 m 224 353 b 431 128 224 228 303 128 b 640 346 547 128 640 207 b 426 575 640 482 553 575 b 224 353 297 575 224 474 m 671 1022 l 490 799 l 357 799 l 486 1022 "},"â":{"ha":904,"x_min":0,"x_max":0,"o":"m 807 703 l 807 0 l 636 0 l 636 106 b 396 -15 586 29 499 -15 b 51 354 188 -15 51 149 b 397 718 51 553 182 718 b 636 599 492 718 579 679 l 636 703 m 224 353 b 431 128 224 228 303 128 b 640 346 547 128 640 207 b 426 575 640 482 553 575 b 224 353 297 575 224 474 m 547 1022 l 703 799 l 576 799 l 461 926 l 344 799 l 219 799 l 374 1022 "},"ã":{"ha":904,"x_min":0,"x_max":0,"o":"m 807 703 l 807 0 l 636 0 l 636 106 b 396 -15 586 29 499 -15 b 51 354 188 -15 51 149 b 397 718 51 553 182 718 b 636 599 492 718 579 679 l 636 703 m 224 353 b 431 128 224 228 303 128 b 640 346 547 128 640 207 b 426 575 640 482 553 575 b 224 353 297 575 224 474 m 699 982 b 558 825 671 879 633 825 b 375 876 489 825 419 876 b 304 813 338 876 324 857 l 222 838 b 363 994 250 940 288 994 b 546 943 432 994 501 943 b 617 1007 583 943 597 963 l 699 982 "},"ä":{"ha":904,"x_min":0,"x_max":0,"o":"m 807 703 l 807 0 l 636 0 l 636 106 b 396 -15 586 29 499 -15 b 51 354 188 -15 51 149 b 397 718 51 553 182 718 b 636 599 492 718 579 679 l 636 703 m 224 353 b 431 128 224 228 303 128 b 640 346 547 128 640 207 b 426 575 640 482 553 575 b 224 353 297 575 224 474 m 179 911 b 283 1011 179 968 224 1011 b 388 911 342 1011 388 968 b 283 813 388 856 342 813 b 179 911 224 813 179 856 m 500 911 b 603 1011 500 968 544 1011 b 708 911 663 1011 708 968 b 603 813 708 856 663 813 b 500 911 544 813 500 856 "},"å":{"ha":904,"x_min":0,"x_max":0,"o":"m 807 703 l 807 0 l 636 0 l 636 106 b 396 -15 586 29 499 -15 b 51 354 188 -15 51 149 b 397 718 51 553 182 718 b 636 599 492 718 579 679 l 636 703 m 224 353 b 431 128 224 228 303 128 b 640 346 547 128 640 207 b 426 575 640 482 553 575 b 224 353 297 575 224 474 m 292 944 b 450 1099 292 1033 363 1099 b 610 944 539 1099 610 1033 b 450 792 610 857 539 792 b 292 944 363 792 292 857 m 374 944 b 450 869 374 901 407 869 b 525 944 493 869 525 901 b 450 1018 525 988 493 1018 b 374 944 407 1018 374 988 "},"ç":{"ha":747,"x_min":0,"x_max":0,"o":"m 49 347 b 444 718 49 556 196 718 b 715 624 513 718 607 703 l 636 501 b 453 565 564 561 479 565 b 221 351 317 565 221 478 b 453 138 221 226 317 138 b 636 201 479 138 564 143 l 715 81 b 464 -15 617 7 529 -12 b 529 -153 510 -61 529 -112 b 347 -312 529 -274 422 -312 b 149 -161 247 -312 176 -244 l 231 -119 b 332 -197 257 -175 294 -197 b 406 -121 372 -197 406 -171 b 342 -4 406 -86 388 -33 b 49 347 158 33 49 174 "},"è":{"ha":840,"x_min":0,"x_max":0,"o":"m 771 119 b 453 -15 676 14 561 -15 b 49 349 200 -15 49 149 b 433 718 49 554 211 718 b 803 328 624 718 803 599 l 219 328 b 461 129 219 217 310 129 b 674 215 549 129 614 161 m 433 582 b 228 443 358 582 264 551 l 628 443 b 433 582 601 551 506 582 m 383 1022 l 513 799 l 378 799 l 199 1022 "},"é":{"ha":840,"x_min":0,"x_max":0,"o":"m 771 119 b 453 -15 676 14 561 -15 b 49 349 200 -15 49 149 b 433 718 49 554 211 718 b 803 328 624 718 803 599 l 219 328 b 461 129 219 217 310 129 b 674 215 549 129 614 161 m 433 582 b 228 443 358 582 264 551 l 628 443 b 433 582 601 551 506 582 m 656 1022 l 475 799 l 342 799 l 471 1022 "},"ê":{"ha":840,"x_min":0,"x_max":0,"o":"m 771 119 b 453 -15 676 14 561 -15 b 49 349 200 -15 49 149 b 433 718 49 554 211 718 b 803 328 624 718 803 599 l 219 328 b 461 129 219 217 310 129 b 674 215 549 129 614 161 m 433 582 b 228 443 358 582 264 551 l 628 443 b 433 582 601 551 506 582 m 508 1022 l 664 799 l 538 799 l 422 926 l 306 799 l 181 799 l 335 1022 "},"ë":{"ha":840,"x_min":0,"x_max":0,"o":"m 771 119 b 453 -15 676 14 561 -15 b 49 349 200 -15 49 149 b 433 718 49 554 211 718 b 803 328 624 718 803 599 l 219 328 b 461 129 219 217 310 129 b 674 215 549 129 614 161 m 433 582 b 228 443 358 582 264 551 l 628 443 b 433 582 601 551 506 582 m 158 911 b 263 1011 158 968 203 1011 b 367 911 321 1011 367 968 b 263 813 367 856 321 813 b 158 911 203 813 158 856 m 479 911 b 582 1011 479 968 524 1011 b 688 911 642 1011 688 968 b 582 813 688 856 642 813 b 479 911 524 813 479 856 "},"ì":{"ha":371,"x_min":0,"x_max":0,"o":"m 100 0 l 100 703 l 271 703 l 271 0 m 142 1022 l 271 799 l 138 799 b -42 1022 78 874 17 947 "},"í":{"ha":371,"x_min":0,"x_max":0,"o":"m 100 0 l 100 703 l 271 703 l 271 0 m 414 1022 l 235 799 l 100 799 l 229 1022 "},"î":{"ha":371,"x_min":0,"x_max":0,"o":"m 100 0 l 100 703 l 271 703 l 271 0 m 269 1022 l 425 799 l 300 799 l 183 926 l 68 799 l -57 799 b 97 1022 -7 874 46 947 "},"ï":{"ha":371,"x_min":0,"x_max":0,"o":"m 100 0 l 100 703 l 271 703 l 271 0 m -79 911 b 24 1011 -79 968 -35 1011 b 128 911 82 1011 128 968 b 24 813 128 856 82 813 b -79 911 -35 813 -79 856 m 240 911 b 343 1011 240 968 285 1011 b 449 911 403 1011 449 968 b 343 813 449 856 403 813 b 240 911 285 813 240 856 "},"ñ":{"ha":843,"x_min":0,"x_max":0,"o":"m 653 982 b 513 825 625 879 588 825 b 329 876 443 825 374 876 b 258 813 292 876 278 857 l 176 838 b 317 994 204 940 242 994 b 500 943 386 994 456 943 b 571 1007 538 943 551 963 l 653 982 m 97 703 l 268 703 l 268 585 b 496 718 313 676 396 718 b 756 389 671 718 756 592 l 756 0 l 585 0 l 585 388 b 449 574 585 510 533 574 b 268 351 349 574 268 499 l 268 0 l 97 0 "},"ò":{"ha":860,"x_min":0,"x_max":0,"o":"m 49 351 b 429 718 49 554 226 718 b 811 351 635 718 811 553 b 429 -15 811 149 635 -15 b 49 351 226 -15 49 147 m 221 351 b 429 131 221 228 311 131 b 639 351 549 131 639 228 b 429 572 639 474 549 572 b 221 351 311 572 221 475 m 368 1022 l 497 799 l 363 799 l 183 1022 "},"ó":{"ha":860,"x_min":0,"x_max":0,"o":"m 49 351 b 429 718 49 554 226 718 b 811 351 635 718 811 553 b 429 -15 811 149 635 -15 b 49 351 226 -15 49 147 m 221 351 b 429 131 221 228 311 131 b 639 351 549 131 639 228 b 429 572 639 474 549 572 b 221 351 311 572 221 475 m 654 1022 l 474 799 l 340 799 l 469 1022 "},"ô":{"ha":860,"x_min":0,"x_max":0,"o":"m 49 351 b 429 718 49 554 226 718 b 811 351 635 718 811 553 b 429 -15 811 149 635 -15 b 49 351 226 -15 49 147 m 221 351 b 429 131 221 228 311 131 b 639 351 549 131 639 228 b 429 572 639 474 549 572 b 221 351 311 572 221 475 m 517 1022 l 672 799 l 546 799 l 431 926 l 314 799 l 189 799 l 343 1022 "},"õ":{"ha":860,"x_min":0,"x_max":0,"o":"m 49 351 b 429 718 49 554 226 718 b 811 351 635 718 811 553 b 429 -15 811 149 635 -15 b 49 351 226 -15 49 147 m 221 351 b 429 131 221 228 311 131 b 639 351 549 131 639 228 b 429 572 639 474 549 572 b 221 351 311 572 221 475 m 668 982 b 528 825 640 879 603 825 b 344 876 458 825 389 876 b 274 813 307 876 293 857 l 192 838 b 332 994 219 940 257 994 b 515 943 401 994 471 943 b 586 1007 553 943 567 963 l 668 982 "},"ö":{"ha":860,"x_min":0,"x_max":0,"o":"m 49 351 b 429 718 49 554 226 718 b 811 351 635 718 811 553 b 429 -15 811 149 635 -15 b 49 351 226 -15 49 147 m 221 351 b 429 131 221 228 311 131 b 639 351 549 131 639 228 b 429 572 639 474 549 572 b 221 351 311 572 221 475 m 165 911 b 269 1011 165 968 210 1011 b 374 911 328 1011 374 968 b 269 813 374 856 328 813 b 165 911 210 813 165 856 m 486 911 b 589 1011 486 968 531 1011 b 694 911 649 1011 694 968 b 589 813 694 856 649 813 b 486 911 531 813 486 856 "},"ù":{"ha":843,"x_min":0,"x_max":0,"o":"m 746 0 l 575 0 l 575 118 b 349 -15 531 26 449 -15 b 88 314 174 -15 88 111 l 88 703 l 258 703 l 258 315 b 394 135 258 201 303 135 b 575 399 474 135 575 200 l 575 703 l 746 703 m 396 1022 l 525 799 l 392 799 l 211 1022 "},"ú":{"ha":843,"x_min":0,"x_max":0,"o":"m 746 0 l 575 0 l 575 118 b 349 -15 531 26 449 -15 b 88 314 174 -15 88 111 l 88 703 l 258 703 l 258 315 b 394 135 258 201 303 135 b 575 399 474 135 575 200 l 575 703 l 746 703 m 646 1022 l 465 799 l 332 799 l 461 1022 "},"û":{"ha":843,"x_min":0,"x_max":0,"o":"m 746 0 l 575 0 l 575 118 b 349 -15 531 26 449 -15 b 88 314 174 -15 88 111 l 88 703 l 258 703 l 258 315 b 394 135 258 201 303 135 b 575 399 474 135 575 200 l 575 703 l 746 703 m 507 1022 l 663 799 l 538 799 l 421 926 l 306 799 l 179 799 l 335 1022 "},"ü":{"ha":843,"x_min":0,"x_max":0,"o":"m 746 0 l 575 0 l 575 118 b 349 -15 531 26 449 -15 b 88 314 174 -15 88 111 l 88 703 l 258 703 l 258 315 b 394 135 258 201 303 135 b 575 399 474 135 575 200 l 575 703 l 746 703 m 160 911 b 264 1011 160 968 204 1011 b 368 911 322 1011 368 968 b 264 813 368 856 322 813 b 160 911 204 813 160 856 m 481 911 b 583 1011 481 968 525 1011 b 689 911 643 1011 689 968 b 583 813 689 856 643 813 b 481 911 525 813 481 856 "},"ý":{"ha":797,"x_min":0,"x_max":0,"o":"m 588 703 l 779 703 l 343 -318 l 175 -318 l 318 42 l 19 703 l 213 703 l 404 221 m 608 1022 l 428 799 l 294 799 l 424 1022 "},"ÿ":{"ha":797,"x_min":0,"x_max":0,"o":"m 588 703 l 779 703 l 343 -318 l 175 -318 l 318 42 l 19 703 l 213 703 l 404 221 m 132 911 b 236 1011 132 968 176 1011 b 340 911 294 1011 340 968 b 236 813 340 856 294 813 b 132 911 176 813 132 856 m 453 911 b 556 1011 453 968 497 1011 b 661 911 615 1011 661 968 b 556 813 661 856 615 813 b 453 911 497 813 453 856 "},"ā":{"ha":904,"x_min":0,"x_max":0,"o":"m 664 963 l 664 838 l 251 838 l 251 963 m 807 703 l 807 0 l 636 0 l 636 106 b 396 -15 586 29 499 -15 b 51 354 188 -15 51 149 b 397 718 51 553 182 718 b 636 599 492 718 579 679 l 636 703 m 224 353 b 431 128 224 228 303 128 b 640 346 547 128 640 207 b 426 575 640 482 553 575 b 224 353 297 575 224 474 "},"ă":{"ha":904,"x_min":0,"x_max":0,"o":"m 447 917 b 544 1022 489 917 538 936 l 653 1011 b 447 800 639 842 529 800 b 240 1011 365 800 254 842 l 350 1022 b 447 917 357 936 404 917 m 807 703 l 807 0 l 636 0 l 636 106 b 396 -15 586 29 499 -15 b 51 354 188 -15 51 149 b 397 718 51 553 182 718 b 636 599 492 718 579 679 l 636 703 m 224 353 b 431 128 224 228 303 128 b 640 346 547 128 640 207 b 426 575 640 482 553 575 b 224 353 297 575 224 474 "},"ą":{"ha":903,"x_min":0,"x_max":0,"o":"m 806 703 l 806 0 b 654 -121 674 -8 654 -86 b 728 -197 654 -169 688 -197 b 829 -119 765 -197 803 -175 b 911 -160 856 -133 885 -146 b 713 -312 883 -244 813 -312 b 531 -151 638 -312 531 -272 b 635 8 531 -118 546 -42 l 635 106 b 394 -15 585 29 497 -15 b 50 354 186 -15 50 149 b 396 718 50 553 181 718 b 635 599 490 718 578 679 l 635 703 m 222 353 b 429 128 222 228 301 128 b 639 346 546 128 639 207 b 425 575 639 482 551 575 b 222 353 296 575 222 474 "},"ć":{"ha":749,"x_min":0,"x_max":0,"o":"m 640 1022 l 461 799 l 326 799 l 456 1022 m 49 347 b 444 718 49 556 196 718 b 715 624 513 718 607 703 l 636 501 b 453 565 564 561 479 565 b 221 351 317 565 221 478 b 453 138 221 226 317 138 b 636 201 479 138 564 143 l 715 81 b 444 -15 607 0 513 -15 b 49 347 200 -15 49 143 "},"ĉ":{"ha":749,"x_min":0,"x_max":0,"o":"m 503 1022 l 658 799 l 533 799 l 417 926 l 301 799 l 175 799 l 331 1022 m 49 347 b 444 718 49 556 196 718 b 715 624 513 718 607 703 l 636 501 b 453 565 564 561 479 565 b 221 351 317 565 221 478 b 453 138 221 226 317 138 b 636 201 479 138 564 143 l 715 81 b 444 -15 607 0 513 -15 b 49 347 200 -15 49 143 "},"ċ":{"ha":749,"x_min":0,"x_max":0,"o":"m 317 907 b 424 1011 317 965 363 1011 b 532 907 483 1011 532 965 b 424 806 532 850 483 806 b 317 907 363 806 317 850 m 49 347 b 444 718 49 556 196 718 b 715 624 513 718 607 703 l 636 501 b 453 565 564 561 479 565 b 221 351 317 565 221 478 b 453 138 221 226 317 138 b 636 201 479 138 564 143 l 715 81 b 444 -15 607 0 513 -15 b 49 347 200 -15 49 143 "},"č":{"ha":749,"x_min":0,"x_max":0,"o":"m 328 799 l 172 1022 l 299 1022 l 414 894 l 531 1022 l 656 1022 l 500 799 m 49 347 b 444 718 49 556 196 718 b 715 624 513 718 607 703 l 636 501 b 453 565 564 561 479 565 b 221 351 317 565 221 478 b 453 138 221 226 317 138 b 636 201 479 138 564 143 l 715 81 b 444 -15 607 0 513 -15 b 49 347 200 -15 49 143 "},"ē":{"ha":840,"x_min":0,"x_max":0,"o":"m 771 119 b 453 -15 676 14 561 -15 b 49 349 200 -15 49 149 b 433 718 49 554 211 718 b 803 328 624 718 803 599 l 219 328 b 461 129 219 217 310 129 b 674 215 549 129 614 161 m 433 582 b 228 443 358 582 264 551 l 628 443 b 433 582 601 551 506 582 m 628 963 l 628 838 l 215 838 l 215 963 "},"ĕ":{"ha":840,"x_min":0,"x_max":0,"o":"m 771 119 b 453 -15 676 14 561 -15 b 49 349 200 -15 49 149 b 433 718 49 554 211 718 b 803 328 624 718 803 599 l 219 328 b 461 129 219 217 310 129 b 674 215 549 129 614 161 m 433 582 b 228 443 358 582 264 551 l 628 443 b 433 582 601 551 506 582 m 422 917 b 519 1022 464 917 513 936 l 628 1011 b 422 800 614 842 504 800 b 215 1011 340 800 229 842 l 325 1022 b 422 917 332 936 379 917 "},"ė":{"ha":840,"x_min":0,"x_max":0,"o":"m 771 119 b 453 -15 676 14 561 -15 b 49 349 200 -15 49 149 b 433 718 49 554 211 718 b 803 328 624 718 803 599 l 219 328 b 461 129 219 217 310 129 b 674 215 549 129 614 161 m 433 582 b 228 443 358 582 264 551 l 628 443 b 433 582 601 551 506 582 m 315 907 b 422 1011 315 965 361 1011 b 529 907 482 1011 529 965 b 422 806 529 850 482 806 b 315 907 361 806 315 850 "},"ę":{"ha":840,"x_min":0,"x_max":0,"o":"m 481 -14 b 453 -15 471 -14 461 -15 b 49 349 200 -15 49 149 b 433 718 49 554 211 718 b 803 328 624 718 803 599 l 219 328 b 458 129 219 219 308 129 b 674 215 549 129 614 161 l 771 119 b 664 44 731 85 704 69 b 543 -122 574 -12 543 -78 b 617 -197 543 -168 576 -197 b 718 -119 653 -197 692 -178 l 801 -160 b 604 -312 774 -243 701 -312 b 421 -154 528 -312 421 -272 b 481 -14 421 -112 435 -61 m 433 582 b 228 443 358 582 264 551 l 628 443 b 433 582 601 551 506 582 "},"ě":{"ha":840,"x_min":0,"x_max":0,"o":"m 771 119 b 453 -15 676 14 561 -15 b 49 349 200 -15 49 149 b 433 718 49 554 211 718 b 803 328 624 718 803 599 l 219 328 b 461 129 219 217 310 129 b 674 215 549 129 614 161 m 433 582 b 228 443 358 582 264 551 l 628 443 b 433 582 601 551 506 582 m 336 799 l 181 1022 l 307 1022 l 422 894 l 539 1022 l 664 1022 l 508 799 "},"ĝ":{"ha":903,"x_min":0,"x_max":0,"o":"m 525 1022 l 681 799 l 554 799 l 439 926 l 322 799 l 197 799 l 351 1022 m 224 353 b 431 128 224 228 303 128 b 640 346 547 128 640 207 b 426 575 640 482 553 575 b 224 353 297 575 224 474 m 115 -233 b 183 -100 139 -189 161 -144 b 413 -185 239 -149 328 -185 b 636 22 533 -185 636 -129 l 636 104 b 396 -15 588 31 494 -15 b 51 354 188 -15 51 149 b 397 718 51 553 182 718 b 636 599 492 718 579 679 l 636 703 l 807 703 l 807 76 b 433 -333 807 -214 656 -333 b 115 -233 281 -333 185 -290 "},"ğ":{"ha":903,"x_min":0,"x_max":0,"o":"m 439 917 b 536 1022 481 917 529 936 l 644 1011 b 439 800 631 842 521 800 b 232 1011 357 800 246 842 l 342 1022 b 439 917 349 936 396 917 m 224 353 b 431 128 224 228 303 128 b 640 346 547 128 640 207 b 426 575 640 482 553 575 b 224 353 297 575 224 474 m 115 -233 b 183 -100 139 -189 161 -144 b 413 -185 239 -149 328 -185 b 636 22 533 -185 636 -129 l 636 104 b 396 -15 588 31 494 -15 b 51 354 188 -15 51 149 b 397 718 51 553 182 718 b 636 599 492 718 579 679 l 636 703 l 807 703 l 807 76 b 433 -333 807 -214 656 -333 b 115 -233 281 -333 185 -290 "},"ġ":{"ha":901,"x_min":0,"x_max":0,"o":"m 308 907 b 415 1011 308 965 354 1011 b 522 907 475 1011 522 965 b 415 806 522 850 475 806 b 308 907 354 806 308 850 m 222 353 b 429 128 222 228 301 128 b 639 346 546 128 639 207 b 425 575 639 482 551 575 b 222 353 296 575 222 474 m 114 -233 b 182 -100 138 -189 160 -144 b 411 -185 238 -149 326 -185 b 635 22 532 -185 635 -129 l 635 104 b 394 -15 586 31 493 -15 b 50 354 186 -15 50 149 b 396 718 50 553 181 718 b 635 599 490 718 578 679 l 635 703 l 806 703 l 806 76 b 432 -333 806 -214 654 -333 b 114 -233 279 -333 183 -290 "},"ĩ":{"ha":371,"x_min":0,"x_max":0,"o":"m 100 0 l 100 703 l 271 703 l 271 0 m 422 982 b 281 825 394 879 357 825 b 97 876 213 825 143 876 b 28 813 61 876 46 857 l -54 838 b 86 994 -26 940 10 994 b 269 943 154 994 224 943 b 339 1007 306 943 321 963 l 422 982 "},"ī":{"ha":371,"x_min":0,"x_max":0,"o":"m 100 0 l 100 703 l 271 703 l 271 0 m 390 963 l 390 838 l -22 838 l -22 963 "},"į":{"ha":371,"x_min":0,"x_max":0,"o":"m 271 0 b 106 -125 143 0 106 -79 b 179 -197 106 -171 139 -197 b 281 -119 217 -197 254 -175 b 363 -160 307 -133 336 -146 b 164 -312 335 -244 264 -312 b -18 -151 89 -312 -18 -272 b 100 13 -18 -112 3 -29 l 100 703 l 271 703 m 75 911 b 186 1019 75 972 122 1019 b 300 911 250 1019 300 972 b 186 804 300 850 250 804 b 75 911 122 804 75 850 "},"ĳ":{"ha":794,"x_min":0,"x_max":0,"o":"m 100 0 l 100 703 l 271 703 l 271 0 m 75 911 b 186 1019 75 972 122 1019 b 300 911 250 1019 300 972 b 186 804 300 850 250 804 b 75 911 122 804 75 850 m 524 703 l 694 703 l 694 -104 b 463 -333 694 -272 581 -333 b 242 -139 311 -333 242 -242 b 251 -82 242 -133 243 -101 b 394 -82 272 -82 375 -82 b 389 -122 389 -96 389 -115 b 456 -192 389 -165 414 -192 b 524 -117 499 -192 524 -161 m 497 911 b 608 1019 497 972 544 1019 b 722 911 672 1019 722 972 b 608 804 722 850 672 804 b 497 911 544 804 497 850 "},"ĵ":{"ha":424,"x_min":0,"x_max":0,"o":"m 153 703 l 324 703 l 324 -104 b 92 -333 324 -272 210 -333 b -129 -139 -60 -333 -129 -242 b -119 -82 -129 -133 -128 -101 b 24 -82 -99 -82 4 -82 b 18 -122 18 -96 18 -115 b 85 -192 18 -165 43 -192 b 153 -117 128 -192 153 -161 m 324 1022 l 479 799 l 353 799 l 238 926 l 121 799 l -4 799 l 150 1022 "},"ń":{"ha":843,"x_min":0,"x_max":0,"o":"m 631 1022 l 451 799 l 317 799 l 446 1022 m 97 703 l 268 703 l 268 585 b 496 718 313 676 396 718 b 756 389 671 718 756 592 l 756 0 l 585 0 l 585 388 b 449 574 585 510 533 574 b 268 351 349 574 268 499 l 268 0 l 97 0 "},"ň":{"ha":843,"x_min":0,"x_max":0,"o":"m 333 799 l 178 1022 l 304 1022 l 419 894 l 536 1022 l 661 1022 l 506 799 m 97 703 l 268 703 l 268 585 b 496 718 313 676 396 718 b 756 389 671 718 756 592 l 756 0 l 585 0 l 585 388 b 449 574 585 510 533 574 b 268 351 349 574 268 499 l 268 0 l 97 0 "},"ō":{"ha":860,"x_min":0,"x_max":0,"o":"m 49 351 b 429 718 49 554 226 718 b 811 351 635 718 811 553 b 429 -15 811 149 635 -15 b 49 351 226 -15 49 147 m 221 351 b 429 131 221 228 311 131 b 639 351 549 131 639 228 b 429 572 639 474 549 572 b 221 351 311 572 221 475 m 636 963 l 636 838 l 224 838 l 224 963 "},"ŏ":{"ha":860,"x_min":0,"x_max":0,"o":"m 49 351 b 429 718 49 554 226 718 b 811 351 635 718 811 553 b 429 -15 811 149 635 -15 b 49 351 226 -15 49 147 m 221 351 b 429 131 221 228 311 131 b 639 351 549 131 639 228 b 429 572 639 474 549 572 b 221 351 311 572 221 475 m 431 917 b 528 1022 472 917 521 936 l 636 1011 b 431 800 622 842 513 800 b 224 1011 349 800 238 842 l 333 1022 b 431 917 340 936 388 917 "},"ő":{"ha":860,"x_min":0,"x_max":0,"o":"m 49 351 b 429 718 49 554 226 718 b 811 351 635 718 811 553 b 429 -15 811 149 635 -15 b 49 351 226 -15 49 147 m 221 351 b 429 131 221 228 311 131 b 639 351 549 131 639 228 b 429 572 639 474 549 572 b 221 351 311 572 221 475 m 517 1022 l 374 799 l 251 799 l 378 1022 m 750 1022 l 599 799 l 474 799 l 610 1022 "},"ŕ":{"ha":533,"x_min":0,"x_max":0,"o":"m 265 547 b 457 718 289 667 382 718 b 515 708 481 718 494 714 l 515 540 b 435 554 489 550 457 554 b 268 325 372 554 268 519 l 268 0 l 97 0 l 97 703 l 265 703 m 421 1022 l 240 799 l 107 799 l 236 1022 "},"ř":{"ha":533,"x_min":0,"x_max":0,"o":"m 265 547 b 457 718 289 667 382 718 b 515 708 481 718 494 714 l 515 540 b 435 554 489 550 457 554 b 268 325 372 554 268 519 l 268 0 l 97 0 l 97 703 l 265 703 m 178 799 l 22 1022 l 149 1022 l 264 894 l 381 1022 l 506 1022 l 350 799 "},"ś":{"ha":642,"x_min":0,"x_max":0,"o":"m 536 1022 l 356 799 l 222 799 l 351 1022 m 171 224 b 321 122 189 154 257 122 b 426 196 371 122 426 140 b 350 271 426 232 393 253 l 247 310 b 71 506 107 363 71 442 b 328 718 71 636 182 718 b 574 561 417 718 528 688 l 436 511 b 329 583 418 568 367 583 b 238 510 285 583 238 558 b 311 438 238 471 272 451 l 415 400 b 594 199 565 350 594 260 b 319 -15 594 60 465 -15 b 36 167 206 -15 76 32 "},"ŝ":{"ha":642,"x_min":0,"x_max":0,"o":"m 411 1022 l 567 799 l 440 799 l 325 926 l 208 799 l 83 799 l 238 1022 m 171 224 b 321 122 189 154 257 122 b 426 196 371 122 426 140 b 350 271 426 232 393 253 l 247 310 b 71 506 107 363 71 442 b 328 718 71 636 182 718 b 574 561 417 718 528 688 l 436 511 b 329 583 418 568 367 583 b 238 510 285 583 238 558 b 311 438 238 471 272 451 l 415 400 b 594 199 565 350 594 260 b 319 -15 594 60 465 -15 b 36 167 206 -15 76 32 "},"š":{"ha":642,"x_min":0,"x_max":0,"o":"m 238 799 l 83 1022 l 208 1022 l 325 894 l 440 1022 l 567 1022 l 411 799 m 171 224 b 321 122 189 154 257 122 b 426 196 371 122 426 140 b 350 271 426 232 393 253 l 247 310 b 71 506 107 363 71 442 b 328 718 71 636 182 718 b 574 561 417 718 528 688 l 436 511 b 329 583 418 568 367 583 b 238 510 285 583 238 558 b 311 438 238 471 272 451 l 415 400 b 594 199 565 350 594 260 b 319 -15 594 60 465 -15 b 36 167 206 -15 76 32 "},"ŧ":{"ha":608,"x_min":0,"x_max":0,"o":"m 310 703 l 519 703 l 519 572 l 310 572 l 310 432 l 471 432 l 471 340 l 310 340 l 310 204 b 378 128 310 161 328 128 b 447 200 419 128 447 157 b 438 258 447 215 444 243 l 578 258 b 593 179 590 232 593 192 b 371 -15 593 76 522 -15 b 139 228 254 -15 139 35 l 139 340 l 47 340 l 47 432 l 139 432 l 139 572 l 29 572 l 29 703 l 147 703 l 178 890 l 310 890 "},"ş":{"ha":642,"x_min":0,"x_max":0,"o":"m 171 224 b 321 122 189 154 257 122 b 426 196 371 122 426 140 b 350 271 426 232 393 253 l 247 310 b 71 506 107 363 71 442 b 328 718 71 636 182 718 b 574 561 417 718 528 688 l 436 511 b 329 583 418 568 367 583 b 238 510 285 583 238 558 b 311 438 238 471 272 451 l 415 400 b 594 199 565 350 594 260 b 400 -7 594 86 510 15 b 469 -151 451 -56 469 -111 b 288 -312 469 -272 363 -312 b 89 -160 189 -312 118 -244 l 172 -119 b 272 -197 197 -175 235 -197 b 347 -121 314 -197 347 -169 b 289 -14 347 -96 333 -39 b 36 167 183 -7 72 43 "},"ũ":{"ha":843,"x_min":0,"x_max":0,"o":"m 746 0 l 575 0 l 575 118 b 349 -15 531 26 449 -15 b 88 314 174 -15 88 111 l 88 703 l 258 703 l 258 315 b 394 135 258 201 303 135 b 575 399 474 135 575 200 l 575 703 l 746 703 m 519 821 b 336 886 446 821 379 886 b 288 814 308 886 294 861 l 199 824 b 197 839 199 829 197 835 b 318 1003 197 935 247 1003 b 499 940 378 1003 450 940 b 549 1010 529 940 536 958 l 639 1000 b 640 982 639 993 640 988 b 519 821 640 893 592 821 "},"ū":{"ha":843,"x_min":0,"x_max":0,"o":"m 746 0 l 575 0 l 575 118 b 349 -15 531 26 449 -15 b 88 314 174 -15 88 111 l 88 703 l 258 703 l 258 315 b 394 135 258 201 303 135 b 575 399 474 135 575 200 l 575 703 l 746 703 m 631 963 l 631 838 l 218 838 l 218 963 "},"ŭ":{"ha":843,"x_min":0,"x_max":0,"o":"m 746 0 l 575 0 l 575 118 b 349 -15 531 26 449 -15 b 88 314 174 -15 88 111 l 88 703 l 258 703 l 258 315 b 394 135 258 201 303 135 b 575 399 474 135 575 200 l 575 703 l 746 703 m 424 917 b 521 1022 467 917 514 936 l 631 1011 b 424 800 617 842 506 800 b 218 1011 342 800 232 842 l 326 1022 b 424 917 333 936 382 917 "},"ů":{"ha":843,"x_min":0,"x_max":0,"o":"m 746 0 l 575 0 l 575 118 b 349 -15 531 26 449 -15 b 88 314 174 -15 88 111 l 88 703 l 258 703 l 258 315 b 394 135 258 201 303 135 b 575 399 474 135 575 200 l 575 703 l 746 703 m 265 944 b 424 1099 265 1033 336 1099 b 583 944 513 1099 583 1033 b 424 792 583 857 513 792 b 265 944 336 792 265 857 m 347 944 b 424 869 347 901 381 869 b 499 944 467 869 499 901 b 424 1018 499 988 467 1018 b 347 944 381 1018 347 988 "},"ű":{"ha":843,"x_min":0,"x_max":0,"o":"m 746 0 l 575 0 l 575 118 b 349 -15 531 26 449 -15 b 88 314 174 -15 88 111 l 88 703 l 258 703 l 258 315 b 394 135 258 201 303 135 b 575 399 474 135 575 200 l 575 703 l 746 703 m 479 1022 l 336 799 l 213 799 l 339 1022 m 711 1022 l 561 799 l 435 799 l 572 1022 "},"ų":{"ha":843,"x_min":0,"x_max":0,"o":"m 575 703 l 746 703 l 746 0 b 581 -125 618 0 581 -79 b 654 -197 581 -171 614 -197 b 756 -119 692 -197 729 -175 l 838 -161 b 639 -312 810 -244 739 -312 b 457 -153 564 -312 457 -274 b 575 10 457 -112 478 -32 l 575 118 b 349 -15 531 26 449 -15 b 88 314 174 -15 88 111 l 88 703 l 258 703 l 258 315 b 394 135 258 201 303 135 b 575 399 474 135 575 200 "},"ŵ":{"ha":1144,"x_min":0,"x_max":0,"o":"m 658 1022 l 814 799 l 689 799 l 572 926 l 457 799 l 331 799 l 486 1022 m 507 683 l 636 683 l 781 232 l 932 703 l 1117 703 l 864 0 l 711 0 l 572 443 l 432 0 l 281 0 l 28 703 l 211 703 l 364 232 "},"ŷ":{"ha":797,"x_min":0,"x_max":0,"o":"m 588 703 l 779 703 l 343 -318 l 175 -318 l 318 42 l 19 703 l 213 703 l 404 221 m 482 1022 l 638 799 l 511 799 l 396 926 l 279 799 l 154 799 l 308 1022 "},"ź":{"ha":792,"x_min":0,"x_max":0,"o":"m 596 1022 l 417 799 l 282 799 l 411 1022 m 747 0 l 42 0 l 42 103 l 476 568 l 67 568 l 67 703 l 721 703 l 721 600 b 286 136 575 446 432 290 l 747 136 "},"ż":{"ha":792,"x_min":0,"x_max":0,"o":"m 290 907 b 397 1011 290 965 336 1011 b 506 907 457 1011 506 965 b 397 806 506 850 457 806 b 290 907 336 806 290 850 m 747 0 l 42 0 l 42 103 l 476 568 l 67 568 l 67 703 l 721 703 l 721 600 b 286 136 575 446 432 290 l 747 136 "},"ž":{"ha":792,"x_min":0,"x_max":0,"o":"m 310 799 l 154 1022 l 281 1022 l 396 894 l 513 1022 l 638 1022 l 482 799 m 747 0 l 42 0 l 42 103 l 476 568 l 67 568 l 67 703 l 721 703 l 721 600 b 286 136 575 446 432 290 l 747 136 "},"ſ":{"ha":443,"x_min":0,"x_max":0,"o":"m 318 0 l 144 0 l 144 572 l 40 572 l 40 703 l 144 703 l 144 750 b 389 1018 144 965 271 1018 b 606 825 540 1018 606 926 b 599 786 606 821 604 800 l 461 786 b 465 810 464 793 465 803 b 396 876 465 854 438 876 b 318 776 353 876 318 843 "},"ẁ":{"ha":1144,"x_min":0,"x_max":0,"o":"m 507 1022 l 636 799 l 503 799 l 322 1022 m 507 683 l 636 683 l 781 232 l 932 703 l 1117 703 l 864 0 l 711 0 l 572 443 l 432 0 l 281 0 l 28 703 l 211 703 l 364 232 "},"ẃ":{"ha":1144,"x_min":0,"x_max":0,"o":"m 815 1022 l 635 799 l 501 799 l 631 1022 m 507 683 l 636 683 l 781 232 l 932 703 l 1117 703 l 864 0 l 711 0 l 572 443 l 432 0 l 281 0 l 28 703 l 211 703 l 364 232 "},"ẅ":{"ha":1144,"x_min":0,"x_max":0,"o":"m 304 911 b 408 1011 304 968 349 1011 b 513 911 467 1011 513 968 b 408 813 513 856 467 813 b 304 911 349 813 304 856 m 625 911 b 728 1011 625 968 669 1011 b 833 911 788 1011 833 968 b 728 813 833 856 788 813 b 625 911 669 813 625 856 m 507 683 l 636 683 l 781 232 l 932 703 l 1117 703 l 864 0 l 711 0 l 572 443 l 432 0 l 281 0 l 28 703 l 211 703 l 364 232 "},"ț":{"ha":607,"x_min":0,"x_max":0,"o":"m 303 -10 b 138 228 213 8 138 72 l 138 572 l 28 572 l 28 703 l 146 703 l 176 890 l 308 890 l 308 703 l 518 703 l 518 572 l 308 572 l 308 204 b 376 128 308 161 326 128 b 446 200 418 128 446 157 b 436 258 446 215 443 243 l 576 258 b 592 179 589 232 592 192 b 435 -8 592 92 540 14 b 511 -151 493 -47 511 -110 b 332 -311 511 -271 410 -311 b 131 -160 232 -311 160 -244 l 214 -119 b 314 -197 239 -175 276 -197 b 389 -121 356 -197 389 -169 b 303 -10 389 -99 371 -28 "},"":{"ha":460,"x_min":0,"x_max":0,"o":"m 132 -361 b 236 -250 193 -339 236 -306 b 125 -169 171 -269 126 -224 b 224 -74 125 -115 161 -74 b 335 -187 307 -74 335 -147 b 165 -421 335 -292 289 -381 "},"ţ":{"ha":607,"x_min":0,"x_max":0,"o":"m 243 -360 b 346 -249 304 -339 346 -306 b 315 -253 335 -251 325 -253 b 236 -168 267 -253 236 -215 b 335 -74 236 -115 271 -74 b 444 -187 418 -74 444 -146 b 275 -421 444 -292 399 -379 m 308 703 l 518 703 l 518 572 l 308 572 l 308 204 b 376 128 308 161 326 128 b 446 200 418 128 446 157 b 436 258 446 215 443 243 l 576 258 b 592 179 589 232 592 192 b 369 -15 592 76 521 -15 b 138 228 253 -15 138 35 l 138 572 l 28 572 l 28 703 l 146 703 l 176 890 l 308 890 "},"ť":{"ha":607,"x_min":0,"x_max":0,"o":"m 503 796 b 600 907 564 818 600 851 b 571 903 589 904 579 903 b 490 988 522 903 490 942 b 589 1083 490 1042 525 1083 b 699 969 672 1083 699 1010 b 536 736 699 865 657 776 m 308 703 l 518 703 l 518 572 l 308 572 l 308 204 b 376 128 308 161 326 128 b 446 200 418 128 446 157 b 436 258 446 215 443 243 l 576 258 b 592 179 589 232 592 192 b 369 -15 592 76 521 -15 b 138 228 253 -15 138 35 l 138 572 l 28 572 l 28 703 l 146 703 l 176 890 l 308 890 "},"ĭ":{"ha":371,"x_min":0,"x_max":0,"o":"m 100 0 l 100 703 l 271 703 l 271 0 m 183 917 b 281 1022 226 917 274 936 l 390 1011 b 183 800 376 842 265 800 b -22 1011 101 800 -8 842 l 86 1022 b 183 917 93 936 142 917 "},"ķ":{"ha":790,"x_min":0,"x_max":0,"o":"m 286 -361 b 389 -250 347 -339 389 -306 b 279 -169 324 -269 279 -224 b 378 -74 278 -115 315 -74 b 488 -187 461 -74 488 -147 b 318 -421 488 -292 442 -381 m 488 703 l 676 703 l 676 682 l 432 381 l 538 217 b 647 139 574 164 596 139 b 731 164 663 139 703 143 l 792 46 b 624 -15 733 -11 658 -15 b 408 113 517 -15 457 43 l 267 340 l 267 0 l 96 0 l 96 1004 l 267 1004 l 267 413 "},"ļ":{"ha":371,"x_min":0,"x_max":0,"o":"m 94 -360 b 199 -249 156 -339 199 -306 b 168 -253 188 -251 178 -253 b 88 -168 121 -253 88 -215 b 186 -74 88 -115 124 -74 b 297 -187 269 -74 297 -146 b 128 -421 297 -292 251 -379 m 100 0 l 100 1004 l 271 1004 l 271 0 "},"ņ":{"ha":843,"x_min":0,"x_max":0,"o":"m 328 -360 b 431 -249 389 -339 431 -306 b 400 -253 419 -251 410 -253 b 321 -168 351 -253 321 -215 b 419 -74 321 -115 356 -74 b 529 -187 503 -74 529 -146 b 360 -421 529 -292 483 -379 m 97 703 l 268 703 l 268 585 b 496 718 313 676 396 718 b 756 389 671 718 756 592 l 756 0 l 585 0 l 585 388 b 449 574 585 510 533 574 b 268 351 349 574 268 499 l 268 0 l 97 0 "},"ŗ":{"ha":533,"x_min":0,"x_max":0,"o":"m 94 -361 b 199 -250 156 -339 199 -306 b 88 -169 133 -269 89 -224 b 186 -74 88 -115 124 -74 b 297 -187 269 -74 297 -147 b 128 -421 297 -292 251 -381 m 265 547 b 457 718 289 667 382 718 b 515 708 481 718 494 714 l 515 540 b 435 554 489 550 457 554 b 268 325 372 554 268 519 l 268 0 l 97 0 l 97 703 l 265 703 "},"ș":{"ha":642,"x_min":0,"x_max":0,"o":"m 222 -360 b 326 -249 283 -339 326 -306 b 296 -253 315 -251 306 -253 b 215 -168 249 -253 215 -215 b 314 -74 215 -115 251 -74 b 425 -187 397 -74 425 -146 b 256 -421 425 -292 379 -379 m 171 224 b 321 122 189 154 257 122 b 426 196 371 122 426 140 b 350 271 426 232 393 253 l 247 310 b 71 506 107 363 71 442 b 328 718 71 636 182 718 b 574 561 417 718 528 688 l 436 511 b 329 583 418 568 367 583 b 238 510 285 583 238 558 b 311 438 238 471 272 451 l 415 400 b 594 199 565 350 594 260 b 319 -15 594 60 465 -15 b 36 167 206 -15 76 32 "},"ľ":{"ha":436,"x_min":0,"x_max":0,"o":"m 344 724 b 447 835 406 746 447 779 b 418 831 436 832 426 831 b 338 915 369 831 338 869 b 436 1011 338 969 372 1011 b 546 897 519 1011 546 938 b 376 664 546 793 500 704 m 100 0 l 100 1004 l 271 1004 l 271 0 "},"ď":{"ha":972,"x_min":0,"x_max":0,"o":"m 879 724 b 983 835 940 746 983 779 b 954 831 972 832 963 831 b 872 915 906 831 872 869 b 971 1011 872 969 908 1011 b 1082 897 1054 1011 1082 938 b 913 664 1082 793 1036 704 m 222 353 b 429 128 222 228 301 128 b 638 346 546 128 638 207 b 424 575 638 482 551 575 b 222 353 294 575 222 474 m 806 1004 l 806 0 l 635 0 l 635 106 b 393 -15 583 29 496 -15 b 50 354 186 -15 50 149 b 394 718 50 553 179 718 b 635 599 489 718 576 679 l 635 1004 "},"ỳ":{"ha":797,"x_min":0,"x_max":0,"o":"m 588 703 l 779 703 l 343 -318 l 175 -318 l 318 42 l 19 703 l 213 703 l 404 221 m 353 1022 l 482 799 l 347 799 l 168 1022 "},"ǻ":{"ha":904,"x_min":0,"x_max":0,"o":"m 619 1203 l 514 1067 b 607 938 569 1047 607 1001 b 447 797 607 850 536 797 b 289 938 360 797 289 850 b 389 1071 289 1006 331 1053 l 460 1203 m 371 938 b 447 875 371 894 404 875 b 522 938 490 875 522 894 b 447 999 522 981 490 999 b 371 938 404 999 371 981 m 807 703 l 807 0 l 636 0 l 636 106 b 396 -15 586 29 499 -15 b 51 354 188 -15 51 149 b 397 718 51 553 182 718 b 636 599 492 718 579 679 l 636 703 m 224 353 b 431 128 224 228 303 128 b 640 346 547 128 640 207 b 426 575 640 482 553 575 b 224 353 297 575 224 474 "},"ģ":{"ha":903,"x_min":0,"x_max":0,"o":"m 517 1086 b 413 975 456 1064 413 1031 b 442 979 422 978 432 979 b 524 894 490 979 524 940 b 425 799 524 840 488 799 b 314 913 342 799 314 872 b 483 1146 314 1017 360 1106 m 224 353 b 431 128 224 228 303 128 b 640 346 547 128 640 207 b 426 575 640 482 553 575 b 224 353 297 575 224 474 m 115 -233 b 183 -100 139 -189 161 -144 b 413 -185 239 -149 328 -185 b 636 22 533 -185 636 -129 l 636 104 b 396 -15 588 31 494 -15 b 51 354 188 -15 51 149 b 397 718 51 553 182 718 b 636 599 492 718 579 679 l 636 703 l 807 703 l 807 76 b 433 -333 807 -214 656 -333 b 115 -233 281 -333 185 -290 "},"ø":{"ha":858,"x_min":0,"x_max":0,"o":"m 714 593 b 810 351 772 528 810 443 b 429 -15 810 149 635 -15 b 226 43 356 -15 285 6 l 149 -44 l 72 24 l 147 108 b 49 351 88 172 49 257 b 429 718 49 554 226 718 b 633 658 504 718 575 696 l 708 743 l 785 674 m 219 351 b 254 229 219 306 229 260 l 533 544 b 429 572 503 563 467 572 b 219 351 311 572 219 475 m 639 351 b 606 471 639 396 626 436 l 328 158 b 429 131 357 140 392 131 b 639 351 549 131 639 228 "},"ǿ":{"ha":858,"x_min":0,"x_max":0,"o":"m 660 1022 l 481 799 l 346 799 l 475 1022 m 714 593 b 810 351 772 528 810 443 b 429 -15 810 149 635 -15 b 226 43 356 -15 285 6 l 149 -44 l 72 24 l 147 108 b 49 351 88 172 49 257 b 429 718 49 554 226 718 b 633 658 504 718 575 696 l 708 743 l 785 674 m 219 351 b 254 229 219 306 229 260 l 533 544 b 429 572 503 563 467 572 b 219 351 311 572 219 475 m 639 351 b 606 471 639 396 626 436 l 328 158 b 429 131 357 140 392 131 b 639 351 549 131 639 228 "},"ŋ":{"ha":842,"x_min":0,"x_max":0,"o":"m 754 94 l 754 81 b 375 -333 754 -174 625 -328 l 375 -185 b 583 103 514 -185 583 -83 l 583 388 b 447 574 583 510 532 574 b 267 351 347 574 267 499 l 267 0 l 96 0 l 96 703 l 267 703 l 267 585 b 494 718 311 676 394 718 b 754 389 669 718 754 592 "},"þ":{"ha":904,"x_min":0,"x_max":0,"o":"m 853 354 b 510 -15 853 149 717 -15 b 268 106 407 -15 319 29 l 268 -318 l 97 -318 l 97 1004 l 268 1004 l 268 599 b 508 718 326 679 414 718 b 853 354 724 718 853 553 m 681 353 b 479 575 681 474 608 575 b 265 346 351 575 265 482 b 474 128 265 207 357 128 b 681 353 601 128 681 228 "},"ß":{"ha":844,"x_min":0,"x_max":0,"o":"m 385 0 b 354 142 375 47 365 94 l 467 142 b 625 285 567 142 625 207 b 368 469 625 382 531 469 l 339 586 b 539 738 481 596 539 660 b 401 861 539 821 485 861 b 269 708 325 861 269 794 l 269 0 l 97 0 l 97 708 b 406 1013 97 906 218 1013 b 711 749 599 1013 711 908 b 563 547 711 660 663 582 b 797 281 699 524 797 421 b 467 0 797 117 667 0 l 385 0 "},"ł":{"ha":451,"x_min":0,"x_max":0,"o":"m 119 0 l 119 353 l 19 307 l 19 418 l 119 463 l 119 1004 l 290 1004 l 290 540 l 424 601 l 424 490 l 290 429 l 290 0 "},"Ł":{"ha":774,"x_min":0,"x_max":0,"o":"m 749 142 l 749 0 l 129 0 l 129 371 l 22 324 l 22 435 l 129 482 l 129 972 l 307 972 l 307 561 l 528 660 l 528 549 l 307 450 l 307 142 "},"À":{"ha":961,"x_min":0,"x_max":0,"o":"m 463 1256 l 576 1051 l 444 1051 l 282 1256 m 13 0 l 388 972 l 572 972 l 950 0 l 768 0 l 694 190 l 267 190 l 196 0 m 481 792 l 317 335 l 643 335 "},"Ô":{"ha":1131,"x_min":0,"x_max":0,"o":"m 651 1256 l 797 1051 l 674 1051 l 565 1167 l 457 1051 l 333 1051 l 478 1256 m 57 486 b 565 988 57 763 288 988 b 1074 486 843 988 1074 763 b 565 -15 1074 210 843 -15 b 57 486 288 -15 57 210 m 238 486 b 565 146 238 290 386 146 b 893 486 744 146 893 290 b 565 826 893 682 744 826 b 238 486 386 826 238 682 "},"Ŏ":{"ha":1131,"x_min":0,"x_max":0,"o":"m 564 1164 b 663 1263 611 1164 653 1190 b 767 1253 683 1261 746 1256 b 564 1057 750 1100 638 1057 b 363 1253 492 1057 379 1100 b 467 1263 383 1256 446 1261 b 564 1164 476 1190 518 1164 m 57 486 b 565 988 57 763 288 988 b 1074 486 843 988 1074 763 b 565 -15 1074 210 843 -15 b 57 486 288 -15 57 210 m 238 486 b 565 146 238 290 386 146 b 893 486 744 146 893 290 b 565 826 893 682 744 826 b 238 486 386 826 238 682 "},"Ǻ":{"ha":961,"x_min":0,"x_max":0,"o":"m 13 0 l 388 972 l 572 972 l 950 0 l 768 0 l 694 190 l 267 190 l 196 0 m 481 792 l 317 335 l 643 335 m 653 1449 l 547 1313 b 640 1183 603 1293 640 1247 b 481 1043 640 1096 569 1043 b 322 1183 393 1043 322 1096 b 422 1317 322 1251 364 1299 l 493 1449 m 404 1183 b 481 1121 404 1140 438 1121 b 556 1183 524 1121 556 1140 b 481 1244 556 1226 524 1244 b 404 1183 438 1244 404 1226 "},"Ġ":{"ha":1022,"x_min":0,"x_max":0,"o":"m 450 1151 b 556 1249 450 1208 494 1249 b 661 1151 614 1249 661 1208 b 556 1056 661 1094 614 1056 b 450 1151 494 1056 450 1094 m 581 828 b 240 483 363 828 240 660 b 582 146 240 301 365 146 b 786 196 656 146 726 163 l 786 365 l 526 365 l 526 507 l 950 507 l 950 126 b 579 -15 815 6 672 -15 b 58 485 279 -15 58 210 b 576 988 58 760 275 988 b 929 871 718 988 826 949 l 849 738 b 581 828 753 801 671 828 "},"Á":{"ha":961,"x_min":0,"x_max":0,"o":"m 679 1256 l 517 1051 l 383 1051 l 499 1256 m 13 0 l 388 972 l 572 972 l 950 0 l 768 0 l 694 190 l 267 190 l 196 0 m 481 792 l 317 335 l 643 335 "},"Â":{"ha":961,"x_min":0,"x_max":0,"o":"m 567 1256 l 713 1051 l 589 1051 l 481 1167 l 372 1051 l 249 1051 l 394 1256 m 13 0 l 388 972 l 572 972 l 950 0 l 768 0 l 694 190 l 267 190 l 196 0 m 481 792 l 317 335 l 643 335 "},"Ã":{"ha":961,"x_min":0,"x_max":0,"o":"m 715 1231 b 575 1074 688 1128 650 1074 b 392 1125 506 1074 436 1125 b 321 1061 354 1125 340 1106 l 239 1086 b 379 1243 267 1189 304 1243 b 563 1192 449 1243 518 1192 b 633 1256 600 1192 614 1211 l 715 1231 m 13 0 l 388 972 l 572 972 l 950 0 l 768 0 l 694 190 l 267 190 l 196 0 m 481 792 l 317 335 l 643 335 "},"Ä":{"ha":961,"x_min":0,"x_max":0,"o":"m 218 1147 b 319 1243 218 1204 261 1243 b 422 1147 378 1243 422 1204 b 319 1054 422 1092 378 1054 b 218 1147 261 1054 218 1092 m 539 1147 b 640 1243 539 1204 582 1243 b 743 1147 699 1243 743 1204 b 640 1054 743 1092 699 1054 b 539 1147 582 1054 539 1092 m 13 0 l 388 972 l 572 972 l 950 0 l 768 0 l 694 190 l 267 190 l 196 0 m 481 792 l 317 335 l 643 335 "},"Ā":{"ha":961,"x_min":0,"x_max":0,"o":"m 688 1204 l 688 1079 l 275 1079 l 275 1204 m 13 0 l 388 972 l 572 972 l 950 0 l 768 0 l 694 190 l 267 190 l 196 0 m 481 792 l 317 335 l 643 335 "},"Ă":{"ha":961,"x_min":0,"x_max":0,"o":"m 481 1164 b 579 1263 526 1164 569 1190 b 683 1253 600 1261 663 1256 b 481 1057 667 1100 554 1057 b 278 1253 407 1057 294 1100 b 382 1263 299 1256 361 1261 b 481 1164 392 1190 433 1164 m 13 0 l 388 972 l 572 972 l 950 0 l 768 0 l 694 190 l 267 190 l 196 0 m 481 792 l 317 335 l 643 335 "},"Å":{"ha":961,"x_min":0,"x_max":0,"o":"m 13 0 l 388 972 l 572 972 l 950 0 l 768 0 l 694 190 l 267 190 l 196 0 m 481 792 l 317 335 l 643 335 m 321 1183 b 479 1329 321 1272 392 1329 b 639 1183 568 1329 639 1272 b 479 1040 639 1096 568 1040 b 321 1183 392 1040 321 1096 m 403 1183 b 479 1115 403 1140 436 1115 b 554 1183 522 1115 554 1140 b 479 1251 554 1226 522 1251 b 403 1183 436 1251 403 1226 "},"Ą":{"ha":961,"x_min":0,"x_max":0,"o":"m 13 0 l 388 972 l 572 972 l 950 0 l 935 0 b 775 -125 810 -1 775 -79 b 847 -197 775 -171 807 -197 b 949 -119 885 -197 922 -175 b 1031 -160 975 -133 1004 -146 b 832 -312 1003 -244 932 -312 b 650 -151 757 -312 650 -272 b 764 11 650 -112 671 -32 l 694 190 l 267 190 l 196 0 m 481 792 l 317 335 l 643 335 "},"Ć":{"ha":957,"x_min":0,"x_max":0,"o":"m 754 1256 l 592 1051 l 458 1051 l 574 1256 m 58 486 b 589 988 58 757 260 988 b 924 874 736 988 833 942 l 853 740 b 590 829 785 790 694 829 b 240 486 369 829 240 675 b 590 143 240 297 369 143 b 853 232 694 143 785 181 l 924 97 b 589 -15 833 29 736 -15 b 58 486 260 -15 58 215 "},"Ĉ":{"ha":957,"x_min":0,"x_max":0,"o":"m 640 1256 l 786 1051 l 663 1051 l 554 1167 l 446 1051 l 322 1051 l 468 1256 m 58 486 b 589 988 58 757 260 988 b 924 874 736 988 833 942 l 853 740 b 590 829 785 790 694 829 b 240 486 369 829 240 675 b 590 143 240 297 369 143 b 853 232 694 143 785 181 l 924 97 b 589 -15 833 29 736 -15 b 58 486 260 -15 58 215 "},"Č":{"ha":957,"x_min":0,"x_max":0,"o":"m 472 1051 b 328 1256 425 1119 375 1188 l 451 1256 l 560 1140 l 668 1256 l 792 1256 l 646 1051 m 58 486 b 589 988 58 757 260 988 b 924 874 736 988 833 942 l 853 740 b 590 829 785 790 694 829 b 240 486 369 829 240 675 b 590 143 240 297 369 143 b 853 232 694 143 785 181 l 924 97 b 589 -15 833 29 736 -15 b 58 486 260 -15 58 215 "},"Ċ":{"ha":957,"x_min":0,"x_max":0,"o":"m 456 1151 b 561 1249 456 1208 500 1249 b 667 1151 619 1249 667 1208 b 561 1056 667 1094 619 1056 b 456 1151 500 1056 456 1094 m 58 486 b 589 988 58 757 260 988 b 924 874 736 988 833 942 l 853 740 b 590 829 785 790 694 829 b 240 486 369 829 240 675 b 590 143 240 297 369 143 b 853 232 694 143 785 181 l 924 97 b 589 -15 833 29 736 -15 b 58 486 260 -15 58 215 "},"Ç":{"ha":957,"x_min":0,"x_max":0,"o":"m 622 -14 b 683 -151 667 -61 683 -112 b 501 -312 683 -272 576 -312 b 303 -160 401 -312 331 -244 b 385 -119 329 -146 358 -133 b 486 -197 411 -175 449 -197 b 560 -121 526 -197 560 -169 b 510 -11 560 -96 550 -49 b 58 486 228 22 58 238 b 589 988 58 757 260 988 b 924 874 736 988 833 942 l 853 740 b 590 829 785 790 694 829 b 240 486 369 829 240 675 b 590 143 240 297 369 143 b 853 232 694 143 785 181 l 924 97 b 622 -14 840 35 751 -8 "},"Ď":{"ha":1032,"x_min":0,"x_max":0,"o":"m 361 1051 l 215 1256 l 339 1256 l 447 1140 l 556 1256 l 679 1256 l 533 1051 m 792 486 b 469 829 792 675 657 829 l 303 829 l 303 142 l 469 142 b 792 486 657 142 792 297 m 974 486 b 469 0 974 219 763 0 l 125 0 l 125 971 l 469 971 b 974 486 763 971 974 753 "},"Đ":{"ha":1032,"x_min":0,"x_max":0,"o":"m 38 544 l 125 544 l 125 971 l 469 971 b 974 486 763 971 974 753 b 469 0 974 219 763 0 l 125 0 l 125 421 l 38 421 m 792 486 b 469 829 792 675 657 829 l 303 829 l 303 544 l 542 544 l 542 421 l 303 421 l 303 142 l 469 142 b 792 486 657 142 792 297 "},"È":{"ha":825,"x_min":0,"x_max":0,"o":"m 125 0 l 125 972 l 757 972 l 757 829 l 303 829 l 303 547 l 699 547 l 699 406 l 303 406 l 303 142 l 757 142 l 757 0 m 414 1256 l 528 1051 l 396 1051 l 233 1256 "},"É":{"ha":825,"x_min":0,"x_max":0,"o":"m 125 0 l 125 972 l 757 972 l 757 829 l 303 829 l 303 547 l 699 547 l 699 406 l 303 406 l 303 142 l 757 142 l 757 0 m 618 1256 l 456 1051 l 322 1051 l 438 1256 "},"Ê":{"ha":825,"x_min":0,"x_max":0,"o":"m 125 0 l 125 972 l 757 972 l 757 829 l 303 829 l 303 547 l 699 547 l 699 406 l 303 406 l 303 142 l 757 142 l 757 0 m 515 1256 l 661 1051 l 538 1051 l 429 1167 l 321 1051 l 197 1051 l 343 1256 "},"Ě":{"ha":825,"x_min":0,"x_max":0,"o":"m 125 0 l 125 972 l 757 972 l 757 829 l 303 829 l 303 547 l 699 547 l 699 406 l 303 406 l 303 142 l 757 142 l 757 0 m 339 1051 b 194 1256 292 1119 242 1188 l 318 1256 l 426 1140 l 535 1256 l 658 1256 l 513 1051 "},"Ë":{"ha":825,"x_min":0,"x_max":0,"o":"m 125 0 l 125 972 l 757 972 l 757 829 l 303 829 l 303 547 l 699 547 l 699 406 l 303 406 l 303 142 l 757 142 l 757 0 m 164 1147 b 265 1243 164 1204 207 1243 b 368 1147 324 1243 368 1204 b 265 1054 368 1092 324 1054 b 164 1147 207 1054 164 1092 m 485 1147 b 586 1243 485 1204 528 1243 b 689 1147 644 1243 689 1204 b 586 1054 689 1092 644 1054 b 485 1147 528 1054 485 1092 "},"Ē":{"ha":825,"x_min":0,"x_max":0,"o":"m 125 0 l 125 972 l 757 972 l 757 829 l 303 829 l 303 547 l 699 547 l 699 406 l 303 406 l 303 142 l 757 142 l 757 0 m 638 1204 l 638 1079 l 225 1079 l 225 1204 "},"Ĕ":{"ha":825,"x_min":0,"x_max":0,"o":"m 125 0 l 125 972 l 757 972 l 757 829 l 303 829 l 303 547 l 699 547 l 699 406 l 303 406 l 303 142 l 757 142 l 757 0 m 431 1164 b 529 1263 478 1164 519 1190 b 633 1253 550 1261 613 1256 b 431 1057 617 1100 504 1057 b 229 1253 358 1057 246 1100 b 333 1263 250 1256 313 1261 b 431 1164 343 1190 385 1164 "},"Ė":{"ha":825,"x_min":0,"x_max":0,"o":"m 125 0 l 125 972 l 757 972 l 757 829 l 303 829 l 303 547 l 699 547 l 699 406 l 303 406 l 303 142 l 757 142 l 757 0 m 326 1151 b 432 1249 326 1208 371 1249 b 538 1151 490 1249 538 1208 b 432 1056 538 1094 490 1056 b 326 1151 371 1056 326 1094 "},"Ę":{"ha":824,"x_min":0,"x_max":0,"o":"m 124 0 l 124 972 l 756 972 l 756 829 l 301 829 l 301 547 l 697 547 l 697 406 l 301 406 l 301 142 l 756 142 l 756 0 l 650 0 b 478 -121 496 0 478 -86 b 553 -197 478 -169 511 -197 b 653 -119 590 -197 628 -175 l 736 -160 b 538 -312 707 -244 636 -312 b 356 -151 463 -312 356 -272 b 457 0 356 -118 372 -46 "},"Ĝ":{"ha":1022,"x_min":0,"x_max":0,"o":"m 647 1256 l 793 1051 l 669 1051 l 561 1167 l 453 1051 l 329 1051 l 475 1256 m 581 828 b 240 483 363 828 240 660 b 582 146 240 301 365 146 b 786 196 656 146 726 163 l 786 365 l 526 365 l 526 507 l 950 507 l 950 126 b 579 -15 815 6 672 -15 b 58 485 279 -15 58 210 b 576 988 58 760 275 988 b 929 871 718 988 826 949 l 849 738 b 581 828 753 801 671 828 "},"Ğ":{"ha":1022,"x_min":0,"x_max":0,"o":"m 544 1164 b 643 1263 592 1164 633 1190 b 747 1253 664 1261 726 1256 b 544 1057 731 1100 618 1057 b 343 1253 472 1057 360 1100 b 447 1263 364 1256 426 1261 b 544 1164 457 1190 499 1164 m 581 828 b 240 483 363 828 240 660 b 582 146 240 301 365 146 b 786 196 656 146 726 163 l 786 365 l 526 365 l 526 507 l 950 507 l 950 126 b 579 -15 815 6 672 -15 b 58 485 279 -15 58 210 b 576 988 58 760 275 988 b 929 871 718 988 826 949 l 849 738 b 581 828 753 801 671 828 "},"Ģ":{"ha":1022,"x_min":0,"x_max":0,"o":"m 483 -361 b 586 -250 544 -339 586 -306 b 476 -169 521 -269 476 -224 b 575 -74 475 -115 513 -74 b 685 -187 658 -74 685 -147 b 515 -421 685 -292 639 -381 m 581 828 b 240 483 363 828 240 660 b 582 146 240 301 365 146 b 786 196 656 146 726 163 l 786 365 l 526 365 l 526 507 l 950 507 l 950 126 b 579 -15 815 6 672 -15 b 58 485 279 -15 58 210 b 576 988 58 760 275 988 b 929 871 718 988 826 949 l 849 738 b 581 828 753 801 671 828 "},"Ĥ":{"ha":1017,"x_min":0,"x_max":0,"o":"m 594 1256 l 740 1051 l 617 1051 l 508 1167 l 400 1051 l 276 1051 b 421 1256 324 1119 374 1188 m 714 0 l 714 393 l 303 393 l 303 0 l 125 0 l 125 972 l 303 972 l 303 535 l 714 535 l 714 972 l 892 972 l 892 0 "},"Ð":{"ha":1032,"x_min":0,"x_max":0,"o":"m 38 544 l 125 544 l 125 971 l 469 971 b 974 486 763 971 974 753 b 469 0 974 219 763 0 l 125 0 l 125 421 l 38 421 m 792 486 b 469 829 792 675 657 829 l 303 829 l 303 544 l 542 544 l 542 421 l 303 421 l 303 142 l 469 142 b 792 486 657 142 792 297 "},"Ì":{"ha":428,"x_min":0,"x_max":0,"o":"m 196 1256 l 310 1051 l 178 1051 l 15 1256 m 303 0 l 125 0 l 125 972 l 303 972 "},"Í":{"ha":428,"x_min":0,"x_max":0,"o":"m 415 1256 l 253 1051 l 119 1051 l 235 1256 m 303 0 l 125 0 l 125 972 l 303 972 "},"Î":{"ha":428,"x_min":0,"x_max":0,"o":"m 301 1256 l 447 1051 l 324 1051 l 215 1167 l 107 1051 l -17 1051 l 129 1256 m 303 0 l 125 0 l 125 972 l 303 972 "},"Ĩ":{"ha":428,"x_min":0,"x_max":0,"o":"m 454 1231 b 313 1074 426 1128 389 1074 b 129 1125 244 1074 175 1125 b 60 1061 93 1125 78 1106 l -24 1086 b 118 1243 4 1189 42 1243 b 301 1192 186 1243 256 1192 b 371 1256 338 1192 353 1211 l 454 1231 m 303 0 l 125 0 l 125 972 l 303 972 "},"Ï":{"ha":428,"x_min":0,"x_max":0,"o":"m -47 1147 b 54 1243 -47 1204 -4 1243 b 157 1147 113 1243 157 1204 b 54 1054 157 1092 113 1054 b -47 1147 -4 1054 -47 1092 m 274 1147 b 375 1243 274 1204 317 1243 b 478 1147 433 1243 478 1204 b 375 1054 478 1092 433 1054 b 274 1147 317 1054 274 1092 m 303 0 l 125 0 l 125 972 l 303 972 "},"Ī":{"ha":428,"x_min":0,"x_max":0,"o":"m 421 1204 l 421 1079 l 8 1079 l 8 1204 m 303 0 l 125 0 l 125 972 l 303 972 "},"Ĭ":{"ha":428,"x_min":0,"x_max":0,"o":"m 215 1164 b 314 1263 261 1164 304 1190 b 418 1253 335 1261 397 1256 b 215 1057 401 1100 289 1057 b 13 1253 142 1057 29 1100 b 117 1263 33 1256 96 1261 b 215 1164 126 1190 168 1164 m 303 0 l 125 0 l 125 972 l 303 972 "},"İ":{"ha":428,"x_min":0,"x_max":0,"o":"m 110 1151 b 215 1249 110 1208 154 1249 b 321 1151 274 1249 321 1208 b 215 1056 321 1094 274 1056 b 110 1151 154 1056 110 1094 m 303 0 l 125 0 l 125 972 l 303 972 "},"Į":{"ha":428,"x_min":0,"x_max":0,"o":"m 125 972 l 303 972 l 303 0 l 296 0 b 136 -125 171 0 136 -79 b 208 -197 136 -171 168 -197 b 310 -119 246 -197 283 -175 b 392 -160 336 -133 365 -146 b 193 -312 364 -244 293 -312 b 11 -151 118 -312 11 -272 b 125 11 11 -112 32 -32 "},"Ĵ":{"ha":921,"x_min":0,"x_max":0,"o":"m 803 1256 l 949 1051 l 825 1051 l 717 1167 l 608 1051 l 485 1051 l 631 1256 m 810 435 b 408 -15 810 138 664 -15 b 38 331 139 -15 38 165 b 75 471 38 371 51 436 l 240 471 b 207 342 217 425 207 368 b 407 138 207 253 265 138 b 632 435 564 138 632 246 l 632 972 l 810 972 "},"Ķ":{"ha":901,"x_min":0,"x_max":0,"o":"m 382 -360 b 486 -249 443 -339 486 -306 b 456 -253 475 -251 465 -253 b 375 -168 408 -253 375 -215 b 474 -74 375 -115 411 -74 b 585 -187 557 -74 585 -146 b 415 -421 585 -292 539 -379 m 301 0 l 124 0 l 124 972 l 301 972 l 301 511 l 617 972 l 801 972 l 801 950 l 471 482 l 624 251 b 768 136 689 161 711 136 b 854 165 786 136 818 140 b 918 40 875 124 896 82 b 740 -15 867 0 796 -15 b 469 176 608 -15 524 81 l 301 439 "},"Ĺ":{"ha":769,"x_min":0,"x_max":0,"o":"m 422 1256 l 260 1051 l 126 1051 l 242 1256 m 744 142 l 744 0 l 125 0 l 125 972 l 303 972 l 303 142 "},"Ľ":{"ha":772,"x_min":0,"x_max":0,"o":"m 493 708 b 596 819 554 731 596 764 b 567 815 585 817 575 815 b 486 900 518 815 486 854 b 585 996 486 954 521 996 b 694 882 668 996 694 922 b 525 649 694 778 649 689 m 743 142 l 743 0 l 124 0 l 124 972 l 301 972 l 301 142 "},"Ļ":{"ha":769,"x_min":0,"x_max":0,"o":"m 332 -360 b 435 -249 393 -339 435 -306 b 404 -253 424 -251 414 -253 b 325 -168 356 -253 325 -215 b 424 -74 325 -115 360 -74 b 533 -187 507 -74 533 -146 b 364 -421 533 -292 488 -379 m 744 142 l 744 0 l 125 0 l 125 972 l 303 972 l 303 142 "},"Ń":{"ha":1043,"x_min":0,"x_max":0,"o":"m 689 1256 l 526 1051 l 393 1051 l 508 1256 m 303 656 l 303 0 l 125 0 l 125 972 l 260 972 l 740 321 l 740 972 l 918 972 l 918 0 l 785 0 "},"Ň":{"ha":1043,"x_min":0,"x_max":0,"o":"m 422 1051 l 278 1256 l 401 1256 l 510 1140 l 618 1256 l 742 1256 l 596 1051 m 303 656 l 303 0 l 125 0 l 125 972 l 260 972 l 740 321 l 740 972 l 918 972 l 918 0 l 785 0 "},"Ñ":{"ha":1043,"x_min":0,"x_max":0,"o":"m 757 1231 b 615 1074 729 1128 692 1074 b 432 1125 547 1074 478 1125 b 363 1061 396 1125 381 1106 l 279 1086 b 421 1243 307 1189 344 1243 b 604 1192 489 1243 558 1192 b 674 1256 640 1192 656 1211 l 757 1231 m 303 656 l 303 0 l 125 0 l 125 972 l 260 972 l 740 321 l 740 972 l 918 972 l 918 0 l 785 0 "},"Ņ":{"ha":1043,"x_min":0,"x_max":0,"o":"m 428 -361 b 531 -250 489 -339 531 -306 b 421 -169 465 -269 421 -224 b 519 -74 419 -115 457 -74 b 629 -187 603 -74 629 -147 b 460 -421 629 -292 583 -381 m 303 656 l 303 0 l 125 0 l 125 972 l 260 972 l 740 321 l 740 972 l 918 972 l 918 0 l 785 0 "},"Ò":{"ha":1131,"x_min":0,"x_max":0,"o":"m 526 1256 l 642 1051 l 508 1051 l 346 1256 m 57 486 b 565 988 57 763 288 988 b 1074 486 843 988 1074 763 b 565 -15 1074 210 843 -15 b 57 486 288 -15 57 210 m 238 486 b 565 146 238 290 386 146 b 893 486 744 146 893 290 b 565 826 893 682 744 826 b 238 486 386 826 238 682 "},"Ó":{"ha":1131,"x_min":0,"x_max":0,"o":"m 767 1256 l 604 1051 l 472 1051 l 586 1256 m 57 486 b 565 988 57 763 288 988 b 1074 486 843 988 1074 763 b 565 -15 1074 210 843 -15 b 57 486 288 -15 57 210 m 238 486 b 565 146 238 290 386 146 b 893 486 744 146 893 290 b 565 826 893 682 744 826 b 238 486 386 826 238 682 "},"Õ":{"ha":1131,"x_min":0,"x_max":0,"o":"m 804 1231 b 663 1074 776 1128 739 1074 b 479 1125 594 1074 525 1125 b 410 1061 443 1125 428 1106 l 326 1086 b 468 1243 354 1189 392 1243 b 651 1192 536 1243 606 1192 b 721 1256 688 1192 703 1211 l 804 1231 m 57 486 b 565 988 57 763 288 988 b 1074 486 843 988 1074 763 b 565 -15 1074 210 843 -15 b 57 486 288 -15 57 210 m 238 486 b 565 146 238 290 386 146 b 893 486 744 146 893 290 b 565 826 893 682 744 826 b 238 486 386 826 238 682 "},"Ö":{"ha":1131,"x_min":0,"x_max":0,"o":"m 301 1147 b 404 1243 301 1204 344 1243 b 507 1147 463 1243 507 1204 b 404 1054 507 1092 463 1054 b 301 1147 344 1054 301 1092 m 622 1147 b 724 1243 622 1204 665 1243 b 828 1147 783 1243 828 1204 b 724 1054 828 1092 783 1054 b 622 1147 665 1054 622 1092 m 57 486 b 565 988 57 763 288 988 b 1074 486 843 988 1074 763 b 565 -15 1074 210 843 -15 b 57 486 288 -15 57 210 m 238 486 b 565 146 238 290 386 146 b 893 486 744 146 893 290 b 565 826 893 682 744 826 b 238 486 386 826 238 682 "},"Ō":{"ha":1131,"x_min":0,"x_max":0,"o":"m 771 1204 l 771 1079 l 358 1079 l 358 1204 m 57 486 b 565 988 57 763 288 988 b 1074 486 843 988 1074 763 b 565 -15 1074 210 843 -15 b 57 486 288 -15 57 210 m 238 486 b 565 146 238 290 386 146 b 893 486 744 146 893 290 b 565 826 893 682 744 826 b 238 486 386 826 238 682 "},"Ő":{"ha":1131,"x_min":0,"x_max":0,"o":"m 636 1263 l 506 1058 l 383 1058 l 497 1263 m 869 1263 l 731 1058 l 606 1058 l 729 1263 m 57 486 b 565 988 57 763 288 988 b 1074 486 843 988 1074 763 b 565 -15 1074 210 843 -15 b 57 486 288 -15 57 210 m 238 486 b 565 146 238 290 386 146 b 893 486 744 146 893 290 b 565 826 893 682 744 826 b 238 486 386 826 238 682 "},"Ŕ":{"ha":965,"x_min":0,"x_max":0,"o":"m 638 1256 l 475 1051 l 342 1051 l 457 1256 m 515 499 b 665 661 607 499 665 565 b 515 825 665 756 606 825 l 301 825 l 301 499 m 846 660 b 628 367 846 518 764 401 b 800 139 644 263 697 139 b 907 182 842 139 881 157 l 969 60 b 775 -15 914 11 857 -15 b 465 357 546 -15 475 246 l 301 357 l 301 0 l 124 0 l 124 972 l 543 972 b 846 660 736 972 846 826 "},"Ř":{"ha":965,"x_min":0,"x_max":0,"o":"m 342 1051 b 197 1256 294 1119 244 1188 l 321 1256 l 429 1140 l 538 1256 l 661 1256 l 515 1051 m 515 499 b 665 661 607 499 665 565 b 515 825 665 756 606 825 l 301 825 l 301 499 m 846 660 b 628 367 846 518 764 401 b 800 139 644 263 697 139 b 907 182 842 139 881 157 l 969 60 b 775 -15 914 11 857 -15 b 465 357 546 -15 475 246 l 301 357 l 301 0 l 124 0 l 124 972 l 543 972 b 846 660 736 972 846 826 "},"Ŗ":{"ha":965,"x_min":0,"x_max":0,"o":"m 385 -360 b 488 -249 446 -339 488 -306 b 457 -253 476 -251 467 -253 b 378 -168 408 -253 378 -215 b 476 -74 378 -115 413 -74 b 586 -187 560 -74 586 -146 b 417 -421 586 -292 540 -379 m 515 499 b 665 661 607 499 665 565 b 515 825 665 756 606 825 l 301 825 l 301 499 m 846 660 b 628 367 846 518 764 401 b 800 139 644 263 697 139 b 907 182 842 139 881 157 l 969 60 b 775 -15 914 11 857 -15 b 465 357 546 -15 475 246 l 301 357 l 301 0 l 124 0 l 124 972 l 543 972 b 846 660 736 972 846 826 "},"Ś":{"ha":813,"x_min":0,"x_max":0,"o":"m 596 1256 l 433 1051 l 300 1051 l 415 1256 m 203 285 b 404 142 224 201 299 142 b 579 265 506 142 579 188 b 451 394 579 322 538 364 l 326 438 b 88 711 122 506 88 629 b 410 988 88 882 232 988 b 732 765 572 988 688 903 l 582 703 b 410 829 549 801 481 829 b 265 714 331 829 265 790 b 381 593 265 681 275 631 l 506 547 b 756 272 694 488 754 368 b 408 -15 756 85 596 -15 b 42 249 218 -15 68 92 "},"Ŝ":{"ha":813,"x_min":0,"x_max":0,"o":"m 486 1256 l 632 1051 l 508 1051 l 400 1167 l 292 1051 l 168 1051 l 314 1256 m 203 285 b 404 142 224 201 299 142 b 579 265 506 142 579 188 b 451 394 579 322 538 364 l 326 438 b 88 711 122 506 88 629 b 410 988 88 882 232 988 b 732 765 572 988 688 903 l 582 703 b 410 829 549 801 481 829 b 265 714 331 829 265 790 b 381 593 265 681 275 631 l 506 547 b 756 272 694 488 754 368 b 408 -15 756 85 596 -15 b 42 249 218 -15 68 92 "},"Š":{"ha":813,"x_min":0,"x_max":0,"o":"m 311 1051 l 167 1256 l 290 1256 l 399 1140 l 507 1256 l 631 1256 l 485 1051 m 203 285 b 404 142 224 201 299 142 b 579 265 506 142 579 188 b 451 394 579 322 538 364 l 326 438 b 88 711 122 506 88 629 b 410 988 88 882 232 988 b 732 765 572 988 688 903 l 582 703 b 410 829 549 801 481 829 b 265 714 331 829 265 790 b 381 593 265 681 275 631 l 506 547 b 756 272 694 488 754 368 b 408 -15 756 85 596 -15 b 42 249 218 -15 68 92 "},"Ş":{"ha":813,"x_min":0,"x_max":0,"o":"m 369 -12 b 42 249 196 0 67 104 l 203 285 b 404 142 224 201 299 142 b 579 265 506 142 579 188 b 451 394 579 322 538 364 l 326 438 b 88 711 122 506 88 629 b 410 988 88 882 232 988 b 732 765 572 988 688 903 l 582 703 b 410 829 549 801 481 829 b 265 714 331 829 265 790 b 381 593 265 681 275 631 l 506 547 b 756 272 694 488 754 368 b 486 -10 756 111 638 14 b 554 -153 536 -58 554 -112 b 372 -312 554 -274 447 -312 b 174 -161 272 -312 201 -244 l 256 -119 b 357 -197 282 -175 319 -197 b 431 -121 397 -197 431 -171 b 371 -12 431 -96 418 -39 "},"Ș":{"ha":813,"x_min":0,"x_max":0,"o":"m 313 -361 b 415 -250 374 -339 415 -306 b 306 -169 350 -269 306 -224 b 404 -74 304 -115 342 -74 b 514 -187 488 -74 514 -147 b 344 -421 514 -292 468 -381 m 203 285 b 404 142 224 201 299 142 b 579 265 506 142 579 188 b 451 394 579 322 538 364 l 326 438 b 88 711 122 506 88 629 b 410 988 88 882 232 988 b 732 765 572 988 688 903 l 582 703 b 410 829 549 801 481 829 b 265 714 331 829 265 790 b 381 593 265 681 275 631 l 506 547 b 756 272 694 488 754 368 b 408 -15 756 85 596 -15 b 42 249 218 -15 68 92 "},"Ť":{"ha":831,"x_min":0,"x_max":0,"o":"m 331 1051 l 185 1256 l 308 1256 l 417 1140 l 525 1256 l 649 1256 l 503 1051 m 803 972 l 803 829 l 503 829 l 503 0 l 325 0 l 325 829 l 28 829 l 28 972 "},"Ţ":{"ha":831,"x_min":0,"x_max":0,"o":"m 318 -361 b 422 -250 379 -339 422 -306 b 311 -169 357 -269 313 -224 b 410 -74 311 -115 347 -74 b 521 -187 493 -74 521 -147 b 351 -421 521 -292 475 -381 m 803 972 l 803 829 l 503 829 l 503 0 l 325 0 l 325 829 l 28 829 l 28 972 "},"Ŧ":{"ha":850,"x_min":0,"x_max":0,"o":"m 513 486 l 513 0 l 335 0 l 335 486 l 143 486 l 143 586 l 335 586 l 335 829 l 38 829 l 38 972 l 813 972 l 813 829 l 513 829 l 513 586 l 704 586 l 704 486 "},"Ù":{"ha":1011,"x_min":0,"x_max":0,"o":"m 497 1256 l 613 1051 l 479 1051 l 317 1256 m 899 972 l 899 364 b 506 -15 899 115 718 -15 b 113 364 292 -15 113 115 l 113 972 l 290 972 l 290 364 b 506 138 290 213 389 138 b 721 364 621 138 721 213 l 721 972 "},"Ú":{"ha":1011,"x_min":0,"x_max":0,"o":"m 685 1256 l 522 1051 l 389 1051 l 504 1256 m 899 972 l 899 364 b 506 -15 899 115 718 -15 b 113 364 292 -15 113 115 l 113 972 l 290 972 l 290 364 b 506 138 290 213 389 138 b 721 364 621 138 721 213 l 721 972 "},"Û":{"ha":1011,"x_min":0,"x_max":0,"o":"m 592 1256 l 738 1051 l 614 1051 l 506 1167 l 397 1051 l 274 1051 l 418 1256 m 899 972 l 899 364 b 506 -15 899 115 718 -15 b 113 364 292 -15 113 115 l 113 972 l 290 972 l 290 364 b 506 138 290 213 389 138 b 721 364 621 138 721 213 l 721 972 "},"Ũ":{"ha":1011,"x_min":0,"x_max":0,"o":"m 746 1231 b 604 1074 718 1128 681 1074 b 421 1125 536 1074 467 1125 b 351 1061 385 1125 369 1106 l 268 1086 b 410 1243 296 1189 333 1243 b 593 1192 478 1243 547 1192 b 663 1256 629 1192 644 1211 l 746 1231 m 899 972 l 899 364 b 506 -15 899 115 718 -15 b 113 364 292 -15 113 115 l 113 972 l 290 972 l 290 364 b 506 138 290 213 389 138 b 721 364 621 138 721 213 l 721 972 "},"Ü":{"ha":1011,"x_min":0,"x_max":0,"o":"m 242 1147 b 344 1243 242 1204 285 1243 b 447 1147 403 1243 447 1204 b 344 1054 447 1092 403 1054 b 242 1147 285 1054 242 1092 m 563 1147 b 664 1243 563 1204 606 1243 b 768 1147 724 1243 768 1204 b 664 1054 768 1092 724 1054 b 563 1147 606 1054 563 1092 m 899 972 l 899 364 b 506 -15 899 115 718 -15 b 113 364 292 -15 113 115 l 113 972 l 290 972 l 290 364 b 506 138 290 213 389 138 b 721 364 621 138 721 213 l 721 972 "},"Ū":{"ha":1011,"x_min":0,"x_max":0,"o":"m 711 1204 l 711 1079 l 299 1079 l 299 1204 m 899 972 l 899 364 b 506 -15 899 115 718 -15 b 113 364 292 -15 113 115 l 113 972 l 290 972 l 290 364 b 506 138 290 213 389 138 b 721 364 621 138 721 213 l 721 972 "},"Ŭ":{"ha":1011,"x_min":0,"x_max":0,"o":"m 504 1164 b 603 1263 551 1164 593 1190 b 707 1253 624 1261 686 1256 b 504 1057 690 1100 578 1057 b 303 1253 432 1057 319 1100 b 407 1263 324 1256 386 1261 b 504 1164 417 1190 458 1164 m 899 972 l 899 364 b 506 -15 899 115 718 -15 b 113 364 292 -15 113 115 l 113 972 l 290 972 l 290 364 b 506 138 290 213 389 138 b 721 364 621 138 721 213 l 721 972 "},"Ů":{"ha":1011,"x_min":0,"x_max":0,"o":"m 347 1183 b 506 1329 347 1272 418 1329 b 665 1183 594 1329 665 1272 b 506 1040 665 1096 594 1040 b 347 1183 418 1040 347 1096 m 429 1183 b 506 1115 429 1140 463 1115 b 581 1183 549 1115 581 1140 b 506 1251 581 1226 549 1251 b 429 1183 463 1251 429 1226 m 899 972 l 899 364 b 506 -15 899 115 718 -15 b 113 364 292 -15 113 115 l 113 972 l 290 972 l 290 364 b 506 138 290 213 389 138 b 721 364 621 138 721 213 l 721 972 "},"Ű":{"ha":1011,"x_min":0,"x_max":0,"o":"m 551 1263 l 421 1058 l 299 1058 l 413 1263 m 785 1263 l 646 1058 l 521 1058 l 644 1263 m 899 972 l 899 364 b 506 -15 899 115 718 -15 b 113 364 292 -15 113 115 l 113 972 l 290 972 l 290 364 b 506 138 290 213 389 138 b 721 364 621 138 721 213 l 721 972 "},"Ų":{"ha":1011,"x_min":0,"x_max":0,"o":"m 551 -12 b 501 -121 506 -42 501 -96 b 575 -197 501 -169 535 -197 b 676 -119 613 -197 650 -175 b 758 -160 703 -133 732 -146 b 560 -312 731 -244 660 -312 b 378 -151 485 -312 378 -272 b 458 -12 378 -99 410 -47 b 113 364 265 4 113 133 l 113 972 l 290 972 l 290 364 b 506 138 290 213 389 138 b 721 364 621 138 721 213 l 721 972 l 899 972 l 899 364 b 551 -12 899 133 743 4 "},"Ẁ":{"ha":1379,"x_min":0,"x_max":0,"o":"m 651 1256 l 767 1051 l 633 1051 l 471 1256 m 957 304 l 1164 972 l 1343 972 l 1039 0 l 894 0 l 690 660 l 486 0 l 340 0 l 36 972 l 215 972 l 422 304 l 622 940 l 758 940 "},"Ẃ":{"ha":1379,"x_min":0,"x_max":0,"o":"m 904 1256 l 742 1051 l 608 1051 l 724 1256 m 957 304 l 1164 972 l 1343 972 l 1039 0 l 894 0 l 690 660 l 486 0 l 340 0 l 36 972 l 215 972 l 422 304 l 622 940 l 758 940 "},"Ŵ":{"ha":1379,"x_min":0,"x_max":0,"o":"m 775 1256 l 921 1051 l 797 1051 l 689 1167 l 581 1051 l 457 1051 l 603 1256 m 957 304 l 1164 972 l 1343 972 l 1039 0 l 894 0 l 690 660 l 486 0 l 340 0 l 36 972 l 215 972 l 422 304 l 622 940 l 758 940 "},"Ẅ":{"ha":1379,"x_min":0,"x_max":0,"o":"m 426 1147 b 529 1243 426 1204 469 1243 b 632 1147 588 1243 632 1204 b 529 1054 632 1092 588 1054 b 426 1147 469 1054 426 1092 m 747 1147 b 849 1243 747 1204 790 1243 b 953 1147 908 1243 953 1204 b 849 1054 953 1092 908 1054 b 747 1147 790 1054 747 1092 m 957 304 l 1164 972 l 1343 972 l 1039 0 l 894 0 l 690 660 l 486 0 l 340 0 l 36 972 l 215 972 l 422 304 l 622 940 l 758 940 "},"Ỳ":{"ha":978,"x_min":0,"x_max":0,"o":"m 476 1256 l 592 1051 l 458 1051 l 296 1256 m 750 972 l 949 972 l 949 954 l 578 399 l 578 0 l 400 0 l 400 397 l 29 954 l 29 972 l 228 972 l 488 556 "},"Ý":{"ha":978,"x_min":0,"x_max":0,"o":"m 678 1256 l 515 1051 l 383 1051 l 497 1256 m 750 972 l 949 972 l 949 954 l 578 399 l 578 0 l 400 0 l 400 397 l 29 954 l 29 972 l 228 972 l 488 556 "},"Ŷ":{"ha":978,"x_min":0,"x_max":0,"o":"m 574 1256 l 719 1051 l 596 1051 l 488 1167 l 379 1051 l 256 1051 l 401 1256 m 750 972 l 949 972 l 949 954 l 578 399 l 578 0 l 400 0 l 400 397 l 29 954 l 29 972 l 228 972 l 488 556 "},"Ÿ":{"ha":978,"x_min":0,"x_max":0,"o":"m 225 1147 b 328 1243 225 1204 268 1243 b 431 1147 386 1243 431 1204 b 328 1054 431 1092 386 1054 b 225 1147 268 1054 225 1092 m 546 1147 b 647 1243 546 1204 589 1243 b 751 1147 707 1243 751 1204 b 647 1054 751 1092 707 1054 b 546 1147 589 1054 546 1092 m 750 972 l 949 972 l 949 954 l 578 399 l 578 0 l 400 0 l 400 397 l 29 954 l 29 972 l 228 972 l 488 556 "},"Ź":{"ha":913,"x_min":0,"x_max":0,"o":"m 638 1256 l 475 1051 l 342 1051 l 457 1256 m 869 0 l 40 0 l 40 122 l 600 829 l 79 829 l 79 972 l 836 972 l 836 849 l 272 142 l 869 142 "},"Ž":{"ha":913,"x_min":0,"x_max":0,"o":"m 371 1051 l 225 1256 l 349 1256 l 457 1140 l 565 1256 l 689 1256 l 543 1051 m 869 0 l 40 0 l 40 122 l 600 829 l 79 829 l 79 972 l 836 972 l 836 849 l 272 142 l 869 142 "},"Ż":{"ha":913,"x_min":0,"x_max":0,"o":"m 346 1151 b 451 1249 346 1208 390 1249 b 557 1151 510 1249 557 1208 b 451 1056 557 1094 510 1056 b 346 1151 390 1056 346 1094 m 869 0 l 40 0 l 40 122 l 600 829 l 79 829 l 79 972 l 836 972 l 836 849 l 272 142 l 869 142 "},"ĥ":{"ha":843,"x_min":0,"x_max":0,"o":"m 97 1004 l 268 1004 l 268 585 b 496 718 313 676 396 718 b 756 389 671 718 756 592 l 756 0 l 585 0 l 585 388 b 449 574 585 510 533 574 b 268 351 364 574 268 511 l 268 0 l 97 0 m 267 1240 l 421 1056 l 300 1056 l 181 1151 l 60 1056 l -60 1056 b 93 1240 -10 1118 42 1179 "},"ĺ":{"ha":371,"x_min":0,"x_max":0,"o":"m 100 0 l 100 1004 l 271 1004 l 271 0 m 401 1256 l 242 1061 l 108 1061 l 221 1256 "},"ħ":{"ha":843,"x_min":0,"x_max":0,"o":"m -6 874 l 97 874 l 97 1004 l 268 1004 l 268 874 l 442 874 l 442 788 l 268 788 l 268 585 b 496 718 313 676 396 718 b 756 389 671 718 756 592 l 756 0 l 585 0 l 585 388 b 449 574 585 510 533 574 b 268 351 349 574 268 499 l 268 0 l 97 0 l 97 788 l -6 788 "},"đ":{"ha":903,"x_min":0,"x_max":0,"o":"m 438 874 l 635 874 l 635 1004 l 806 1004 l 806 874 l 910 874 l 910 788 l 806 788 l 806 0 l 635 0 l 635 106 b 393 -15 583 29 496 -15 b 50 354 186 -15 50 149 b 394 718 50 553 179 718 b 635 599 489 718 576 679 l 635 788 l 438 788 m 222 353 b 429 128 222 228 301 128 b 638 346 546 128 638 207 b 424 575 638 482 551 575 b 222 353 294 575 222 474 "},"Ŋ":{"ha":1040,"x_min":0,"x_max":0,"o":"m 301 656 l 301 0 l 124 0 l 124 972 l 258 972 b 739 342 419 761 578 551 l 739 972 l 917 972 l 917 106 b 515 -333 911 -165 779 -328 b 514 -176 515 -281 514 -228 b 739 43 640 -176 722 -99 b 739 53 739 46 739 50 b 707 119 740 74 726 93 "},"Þ":{"ha":883,"x_min":0,"x_max":0,"o":"m 301 0 l 125 0 l 125 972 l 301 972 l 301 756 l 599 756 b 843 486 742 756 843 628 b 593 217 843 346 744 217 l 301 217 m 538 360 b 661 486 625 360 661 422 b 538 614 661 550 635 614 l 301 614 l 301 360 "},"Ħ":{"ha":1018,"x_min":0,"x_max":0,"o":"m 303 660 l 303 535 l 715 535 l 715 660 m 126 660 l 28 660 l 28 760 l 126 760 l 126 972 l 303 972 l 303 760 l 715 760 l 715 972 l 892 972 l 892 760 l 992 760 l 992 660 l 892 660 l 892 0 l 715 0 l 715 393 l 303 393 l 303 0 l 126 0 "},"Œ":{"ha":1328,"x_min":0,"x_max":0,"o":"m 646 142 l 646 829 l 557 829 b 240 500 376 829 240 697 b 557 142 240 303 376 142 m 557 0 b 60 500 275 0 60 224 b 557 972 60 778 275 972 l 1261 972 l 1261 829 l 822 829 l 822 551 l 1201 551 l 1201 408 l 822 408 l 822 142 l 1261 142 l 1261 0 "},"Ŀ":{"ha":779,"x_min":0,"x_max":0,"o":"m 419 442 b 533 550 419 501 469 550 b 649 442 597 550 649 501 b 533 332 649 381 597 332 b 419 442 469 332 419 381 m 744 142 l 744 0 l 125 0 l 125 972 l 303 972 l 303 142 "},"ŀ":{"ha":521,"x_min":0,"x_max":0,"o":"m 100 0 l 100 1004 l 271 1004 l 271 0 m 333 428 b 447 538 333 489 383 538 b 563 428 511 538 563 489 b 447 319 563 367 511 319 b 333 428 383 319 333 367 "},"Ĳ":{"ha":1349,"x_min":0,"x_max":0,"o":"m 303 0 l 125 0 l 125 972 l 303 972 m 1238 435 b 836 -15 1238 138 1092 -15 b 465 331 567 -15 465 165 b 503 471 465 371 479 436 l 668 471 b 635 342 644 425 635 368 b 835 138 635 253 693 138 b 1060 435 992 138 1060 246 l 1060 972 l 1238 972 "},"ŉ":{"ha":972,"x_min":0,"x_max":0,"o":"m 32 751 b 135 863 93 772 135 806 b 106 858 124 860 114 858 b 25 943 58 858 25 896 b 124 1038 25 996 61 1038 b 233 924 207 1038 233 965 b 65 690 233 819 188 732 m 243 703 l 414 703 l 414 585 b 642 718 458 676 542 718 b 901 389 817 718 901 592 l 901 0 l 731 0 l 731 388 b 594 574 731 510 679 574 b 414 351 494 574 414 499 l 414 0 l 243 0 "},"„":{"ha":668,"x_min":0,"x_max":0,"o":"m 71 -122 b 176 11 147 -96 176 -46 b 69 96 113 -1 71 49 b 178 197 68 150 104 197 b 283 72 264 197 283 114 b 107 -186 283 -44 228 -147 m 383 -122 b 489 11 460 -96 489 -46 b 382 96 425 -1 383 49 b 490 197 381 150 417 197 b 596 72 576 197 596 114 b 418 -186 596 -44 539 -147 "},"‚":{"ha":356,"x_min":0,"x_max":0,"o":"m 71 -122 b 176 11 147 -96 176 -46 b 69 96 113 -1 71 49 b 178 197 68 150 104 197 b 283 72 264 197 283 114 b 106 -186 283 -44 226 -147 "},"\"":{"ha":633,"x_min":0,"x_max":0,"o":"m 219 611 l 106 611 l 76 1004 l 249 1004 m 528 611 l 413 611 l 383 1004 l 557 1004 "},"'":{"ha":325,"x_min":0,"x_max":0,"o":"m 219 611 l 106 611 l 76 1004 l 249 1004 "},"¶":{"ha":919,"x_min":0,"x_max":0,"o":"m 497 972 l 497 953 b 446 836 471 932 446 904 l 446 -197 l 332 -197 l 332 513 l 274 513 b 46 742 146 513 46 614 b 274 972 46 869 146 972 m 639 -197 l 526 -197 l 526 821 b 701 988 526 933 608 988 b 876 836 817 988 876 921 b 864 769 876 836 876 799 l 757 769 b 767 821 767 794 767 815 b 703 881 767 861 735 881 b 639 815 668 881 639 860 "},"ĸ":{"ha":775,"x_min":0,"x_max":0,"o":"m 511 703 l 689 703 l 689 671 l 408 354 l 536 190 b 631 135 567 154 588 135 b 711 169 653 135 675 142 l 769 56 b 600 -15 703 -11 632 -15 b 407 101 507 -15 469 26 l 265 286 l 265 0 l 96 0 l 96 703 l 264 703 l 264 415 "},"ƒ":{"ha":586,"x_min":0,"x_max":0,"o":"m 346 -65 b 101 -333 346 -281 219 -333 b -37 -301 56 -333 -4 -324 l 19 -178 b 86 -196 42 -192 68 -196 b 172 -62 144 -196 172 -154 l 172 436 l 68 436 l 68 568 l 172 568 l 172 735 b 417 1003 172 950 299 1003 b 556 971 463 1003 522 993 l 499 847 b 432 865 476 861 450 865 b 346 732 374 865 346 824 l 346 568 l 517 568 l 517 436 l 346 436 "},"Ø":{"ha":1131,"x_min":0,"x_max":0,"o":"m 176 0 l 243 99 b 57 486 132 192 57 331 b 565 988 57 763 288 988 b 803 928 651 988 732 965 l 872 1032 l 969 965 l 899 861 b 1074 486 1004 769 1074 635 b 565 -15 1074 210 843 -15 b 343 35 486 -15 410 3 l 274 -67 m 238 486 b 338 239 238 386 276 299 l 710 792 b 565 826 667 814 617 826 b 238 486 386 826 238 682 m 893 486 b 804 719 893 579 858 660 l 436 172 b 565 146 475 156 519 146 b 893 486 744 146 893 290 "},"µ":{"ha":842,"x_min":0,"x_max":0,"o":"m 92 703 l 263 703 l 263 300 b 399 129 263 190 317 129 b 579 351 499 129 579 203 l 579 703 l 750 703 l 750 0 l 579 0 l 579 118 b 351 -15 535 26 451 -15 b 256 1 317 -15 283 -8 l 256 -217 l 92 -217 "},"Ǿ":{"ha":1131,"x_min":0,"x_max":0,"o":"m 789 1256 l 626 1051 l 493 1051 l 608 1256 m 176 0 l 243 99 b 57 486 132 192 57 331 b 565 988 57 763 288 988 b 803 928 651 988 732 965 l 872 1032 l 969 965 l 899 861 b 1074 486 1004 769 1074 635 b 565 -15 1074 210 843 -15 b 343 35 486 -15 410 3 l 274 -67 m 238 486 b 338 239 238 386 276 299 l 710 792 b 565 826 667 814 617 826 b 238 486 386 826 238 682 m 893 486 b 804 719 893 579 858 660 l 436 172 b 565 146 475 156 519 146 b 893 486 744 146 893 290 "},"":{"ha":975,"x_min":0,"x_max":0,"o":"m 719 211 b 526 446 719 360 622 432 b 629 675 558 531 597 615 l 650 404 l 754 404 l 718 868 l 617 868 b 486 586 568 778 521 685 b 356 868 451 685 403 778 l 254 868 l 218 404 l 322 404 l 343 675 b 446 449 375 615 411 532 b 239 211 344 436 239 368 b 344 211 239 211 344 211 b 481 358 344 314 418 358 b 615 211 542 358 615 314 b 719 211 615 211 719 211 m 139 958 l 836 958 l 836 0 l 139 0 m 201 60 l 213 60 l 213 97 l 225 60 l 235 60 l 249 99 l 249 60 l 260 60 l 260 114 l 243 114 l 231 76 l 218 114 l 201 114 m 290 115 b 264 86 274 115 264 103 b 290 58 264 71 274 58 b 318 86 307 58 318 71 b 290 115 318 103 307 115 m 290 68 b 276 86 281 68 276 78 b 290 106 276 96 281 106 b 306 86 301 106 306 96 b 290 68 306 78 301 68 m 318 78 b 342 58 318 64 329 58 b 364 76 356 58 364 65 b 349 92 364 85 358 89 b 332 100 333 96 332 96 b 340 106 332 104 336 106 b 350 97 346 106 350 104 l 363 97 b 340 115 363 111 351 115 b 319 99 331 115 319 110 b 338 83 319 89 328 85 b 353 75 349 81 353 79 b 342 68 353 69 346 68 b 329 78 336 68 329 71 m 379 60 l 392 60 l 392 104 l 408 104 l 408 114 l 363 114 l 363 104 l 379 104 m 399 60 l 411 60 l 415 72 l 435 72 l 439 60 l 451 60 l 432 114 l 419 114 m 418 81 l 425 100 l 432 81 m 453 60 l 465 60 l 465 81 l 476 81 b 486 71 483 81 486 76 b 488 60 486 65 486 63 l 500 60 b 497 72 499 63 497 65 b 489 85 497 76 496 83 l 489 86 b 499 99 496 88 499 93 b 482 114 499 107 492 114 l 453 114 m 465 104 l 478 104 b 486 97 483 104 486 103 b 478 89 486 92 483 89 l 465 89 m 504 60 l 528 60 b 553 88 544 60 553 71 b 528 114 553 106 542 114 l 504 114 m 517 104 l 525 104 b 540 86 536 104 540 97 b 526 69 540 74 533 69 l 517 69 m 557 60 l 599 60 l 599 69 l 568 69 l 568 83 l 594 83 l 594 93 l 568 93 l 568 104 l 597 104 l 597 114 l 557 114 m 599 78 b 622 58 599 64 610 58 b 644 76 638 58 644 65 b 629 92 644 85 639 89 b 613 100 614 96 613 96 b 621 106 613 104 617 106 b 632 97 626 106 631 104 l 643 97 b 621 115 643 111 632 115 b 600 99 611 115 600 110 b 618 83 600 89 608 85 b 633 75 629 81 633 79 b 622 68 633 69 626 68 b 611 78 617 68 611 71 m 649 60 l 660 60 l 660 114 l 649 114 m 707 60 l 715 60 l 715 89 l 692 89 l 692 81 l 704 81 b 692 68 703 72 699 68 b 676 86 681 68 676 78 b 692 106 676 96 681 106 b 703 96 697 106 701 103 l 714 96 b 692 115 713 108 703 115 b 664 86 674 115 664 103 b 692 58 664 71 674 58 b 706 65 696 58 701 61 m 721 60 l 732 60 l 732 96 l 754 60 l 767 60 l 767 114 l 756 114 l 756 78 l 732 114 l 721 114 "},"€":{"ha":954,"x_min":0,"x_max":0,"o":"m 54 624 l 199 624 b 658 988 240 833 390 988 b 906 921 742 988 821 971 b 853 782 888 875 869 828 b 674 831 794 818 707 831 b 378 624 507 831 415 750 l 803 624 l 768 525 l 360 525 b 358 486 358 513 358 499 b 361 440 358 471 360 456 l 740 440 l 706 343 l 382 343 b 665 140 419 224 514 140 b 853 174 715 140 775 144 l 853 22 b 669 -15 796 -1 732 -15 b 200 343 396 -15 242 136 l 54 343 l 54 440 l 189 440 b 186 481 188 451 186 465 b 188 525 186 494 186 511 l 54 525 "},"&":{"ha":1104,"x_min":0,"x_max":0,"o":"m 688 106 b 400 -15 628 26 515 -15 b 53 260 210 -15 53 85 b 297 556 53 413 179 501 b 199 763 242 608 199 686 b 458 988 199 929 338 988 b 718 765 621 988 718 883 b 528 519 718 663 628 569 l 681 347 l 800 514 l 961 514 l 961 486 l 778 236 l 835 174 b 922 132 863 143 894 133 b 1035 178 954 132 1003 143 l 1093 63 b 914 -15 1049 17 993 -15 b 711 79 825 -15 767 24 m 392 446 b 224 268 313 419 224 357 b 403 125 224 183 304 125 b 589 221 481 125 539 160 m 363 754 b 438 614 363 708 392 660 b 558 760 519 658 558 711 b 461 856 558 804 525 856 b 363 754 407 856 363 815 "},"/":{"ha":756,"x_min":0,"x_max":0,"o":"m 188 -53 l 36 -53 l 567 1024 l 719 1024 "},"\\":{"ha":756,"x_min":0,"x_max":0,"o":"m 36 1024 l 189 1024 l 719 -53 l 568 -53 "},"*":{"ha":631,"x_min":0,"x_max":0,"o":"m 115 571 l 233 717 l 51 768 l 89 883 l 264 815 l 253 1004 l 376 1004 l 365 815 l 542 883 l 579 769 l 397 719 l 517 571 l 421 501 l 318 657 l 210 500 "},"¡":{"ha":365,"x_min":0,"x_max":0,"o":"m 285 -269 l 79 -269 l 79 -249 l 122 389 l 242 389 l 285 -249 m 67 608 b 183 718 67 671 117 718 b 300 608 249 718 300 671 b 183 496 300 544 249 496 b 67 608 117 496 67 544 "},"–":{"ha":803,"x_min":0,"x_max":0,"o":"m 89 499 l 713 499 l 713 354 l 89 354 "},"—":{"ha":1110,"x_min":0,"x_max":0,"o":"m 89 499 l 1019 499 l 1019 354 l 89 354 "},"-":{"ha":664,"x_min":0,"x_max":0,"o":"m 88 503 l 575 503 l 575 357 l 88 357 "},"+":{"ha":775,"x_min":0,"x_max":0,"o":"m 314 99 l 314 358 l 53 358 l 53 499 l 314 499 l 314 757 l 461 757 l 461 499 l 721 499 l 721 358 l 461 358 l 461 99 "},"_":{"ha":989,"x_min":0,"x_max":0,"o":"m 0 -81 l 989 -81 l 989 -225 l 0 -225 "},"¬":{"ha":865,"x_min":0,"x_max":0,"o":"m 75 651 l 765 651 l 765 267 l 619 267 l 619 506 l 75 506 "},"[":{"ha":504,"x_min":0,"x_max":0,"o":"m 96 1036 l 469 1036 l 469 901 l 257 901 l 257 -165 l 469 -165 l 469 -300 l 96 -300 "},"]":{"ha":504,"x_min":0,"x_max":0,"o":"m 408 -300 l 35 -300 l 35 -165 l 246 -165 l 246 901 l 35 901 l 35 1036 l 408 1036 "},"{":{"ha":486,"x_min":0,"x_max":0,"o":"m 239 357 b 333 235 307 342 333 286 b 251 -92 333 136 251 19 b 340 -190 251 -151 275 -190 l 349 -190 b 444 -182 365 -189 392 -187 l 444 -294 b 319 -304 401 -299 353 -304 b 92 -106 201 -304 92 -244 b 144 121 92 -37 119 47 b 185 267 158 163 185 228 b 53 319 185 308 86 313 l 53 413 b 185 465 111 422 185 432 b 179 500 185 475 183 488 b 92 838 153 615 92 728 b 319 1036 92 978 201 1036 b 444 1026 353 1036 401 1031 l 444 914 b 340 922 376 922 357 922 b 251 824 275 922 251 883 b 333 497 251 713 333 594 b 239 374 333 446 307 389 l 239 365 b 239 357 239 361 239 357 "},"}":{"ha":488,"x_min":0,"x_max":0,"o":"m 249 357 b 249 365 249 357 249 361 l 249 374 b 154 497 181 389 154 446 b 236 824 154 594 236 713 b 147 922 236 883 213 922 b 43 914 131 922 111 922 l 43 1026 b 168 1036 86 1031 135 1036 b 396 838 286 1036 396 978 b 308 500 396 728 335 615 b 303 465 304 488 303 475 b 435 413 303 432 376 422 l 435 319 b 303 267 401 313 303 308 b 343 121 303 228 329 163 b 396 -106 368 47 396 -37 b 168 -304 396 -244 286 -304 b 43 -294 135 -304 86 -299 l 43 -182 b 139 -190 96 -187 122 -189 l 147 -190 b 236 -92 213 -190 236 -151 b 154 235 236 19 154 136 b 249 357 154 286 181 342 "},"=":{"ha":854,"x_min":0,"x_max":0,"o":"m 93 207 l 93 350 l 761 350 l 761 207 m 93 576 l 93 718 l 761 718 l 761 576 "},"°":{"ha":586,"x_min":0,"x_max":0,"o":"m 56 767 b 293 1004 56 899 160 1004 b 531 767 428 1004 531 899 b 293 533 531 638 428 533 b 56 767 160 533 56 638 m 167 767 b 293 636 167 693 219 636 b 421 767 368 636 421 693 b 293 901 421 842 368 901 b 167 767 219 901 167 842 "},"±":{"ha":858,"x_min":0,"x_max":0,"o":"m 354 296 l 354 496 l 94 496 l 94 632 l 354 632 l 354 831 l 504 831 l 504 632 l 763 632 l 763 496 l 504 496 l 504 296 m 94 81 l 94 215 l 763 215 l 763 81 "},"·":{"ha":392,"x_min":0,"x_max":0,"o":"m 79 386 b 194 499 79 449 129 499 b 313 386 260 499 313 449 b 194 275 313 324 260 275 b 79 386 129 275 79 324 "},"$":{"ha":764,"x_min":0,"x_max":0,"o":"m 349 22 b 47 267 190 35 69 129 b 199 301 97 279 147 289 b 349 174 214 232 269 183 l 349 419 b 89 692 131 492 89 597 b 349 944 89 836 203 931 l 349 1081 l 435 1081 l 435 942 b 685 739 558 928 649 853 b 543 679 638 718 590 700 b 435 789 521 744 483 776 l 435 556 l 475 542 b 706 288 640 485 706 376 b 435 22 706 129 585 39 l 435 -110 l 349 -110 m 538 279 b 435 389 538 331 497 357 l 435 176 b 538 279 497 189 538 225 m 256 692 b 349 588 256 660 265 629 l 349 792 b 256 692 296 781 256 749 "},"|":{"ha":307,"x_min":0,"x_max":0,"o":"m 96 -318 l 96 1058 l 211 1058 l 211 -318 "},"¦":{"ha":324,"x_min":0,"x_max":0,"o":"m 104 485 l 104 1060 l 219 1060 l 219 485 m 104 -318 l 104 257 l 219 257 l 219 -318 "},"<":{"ha":807,"x_min":0,"x_max":0,"o":"m 710 731 l 726 731 l 726 579 l 224 383 l 726 188 l 726 36 l 710 36 l 47 314 l 47 451 "},">":{"ha":808,"x_min":0,"x_max":0,"o":"m 761 451 l 761 314 l 99 36 l 82 36 l 82 188 l 585 383 l 82 579 l 82 731 l 99 731 "},"¥":{"ha":1011,"x_min":0,"x_max":0,"o":"m 594 204 l 594 0 l 417 0 l 417 204 l 164 204 l 164 300 l 417 300 l 417 394 l 164 394 l 164 489 l 356 489 l 43 954 l 43 972 l 247 972 l 506 556 l 764 972 l 968 972 l 968 954 l 654 489 l 846 489 l 846 394 l 594 394 l 594 300 l 846 300 l 846 204 "},"‡":{"ha":788,"x_min":0,"x_max":0,"o":"m 467 174 l 467 -199 l 321 -199 l 321 174 l 60 174 l 60 304 l 321 304 l 321 596 l 60 596 l 60 726 l 321 726 l 321 1060 l 467 1060 l 467 726 l 728 726 l 728 596 l 467 596 l 467 304 l 728 304 l 728 174 "},"†":{"ha":757,"x_min":0,"x_max":0,"o":"m 451 -197 l 306 -197 l 306 596 l 44 596 l 44 726 l 306 726 l 306 1060 l 451 1060 l 451 726 l 713 726 l 713 596 l 451 596 "},"^":{"ha":743,"x_min":0,"x_max":0,"o":"m 529 486 l 371 826 b 213 486 350 782 232 526 l 57 486 l 308 988 l 436 988 l 686 486 "},"«":{"ha":822,"x_min":0,"x_max":0,"o":"m 393 431 l 661 738 l 760 653 l 554 415 l 760 181 l 661 94 l 393 400 m 56 431 l 322 738 l 422 653 l 217 415 l 421 181 l 322 94 l 56 400 "},"¢":{"ha":785,"x_min":0,"x_max":0,"o":"m 61 347 b 442 718 61 551 201 713 l 464 842 l 557 842 l 533 710 b 725 624 589 700 654 675 l 646 501 b 507 561 597 540 544 556 l 429 140 b 469 136 440 138 450 136 b 646 200 494 136 575 142 l 725 79 b 456 -15 618 -1 524 -15 b 401 -11 438 -15 419 -14 l 378 -146 l 285 -146 l 313 6 b 61 347 153 54 61 186 m 232 351 b 342 165 232 268 274 201 l 413 561 b 232 351 304 543 232 461 "},"»":{"ha":821,"x_min":0,"x_max":0,"o":"m 429 400 l 161 94 l 63 181 l 268 415 l 63 653 l 161 738 l 429 431 m 767 400 l 500 94 l 401 181 l 606 415 l 400 653 l 500 738 l 767 431 "},"‹":{"ha":483,"x_min":0,"x_max":0,"o":"m 56 431 l 322 738 l 422 653 l 217 415 l 421 181 l 322 94 l 56 400 "},"›":{"ha":482,"x_min":0,"x_max":0,"o":"m 428 400 l 161 94 l 63 181 l 267 415 l 61 653 l 161 738 l 428 431 "},"≠":{"ha":833,"x_min":0,"x_max":0,"o":"m 344 207 l 249 28 l 153 81 l 222 207 l 83 207 l 83 350 l 299 350 b 421 576 340 425 381 501 l 83 576 l 83 718 l 499 718 l 590 890 l 685 839 b 619 718 663 799 640 758 l 751 718 l 751 576 l 542 576 l 421 350 l 751 350 l 751 207 "},"−":{"ha":910,"x_min":0,"x_max":0,"o":"m 93 501 l 817 501 l 817 357 l 93 357 "},"ℓ":{"ha":671,"x_min":0,"x_max":0,"o":"m 621 749 b 313 232 621 500 493 297 b 393 122 314 164 344 122 b 460 192 439 122 460 149 b 460 219 460 196 460 215 l 594 219 b 606 168 604 193 606 175 b 388 -15 606 65 531 -15 b 140 218 285 -15 158 24 b 119 218 133 218 126 218 b 40 225 94 218 67 219 l 40 335 b 99 331 61 332 81 331 b 139 333 113 331 126 331 l 139 749 b 388 1004 139 975 308 1004 b 621 749 474 1004 621 975 m 479 754 b 396 865 479 842 431 865 b 311 726 347 865 311 835 l 311 374 b 479 754 411 432 479 575 "},"℮":{"ha":882,"x_min":0,"x_max":0,"o":"m 235 392 l 235 124 b 446 36 293 68 363 36 b 738 213 601 36 675 118 l 781 186 b 446 -10 708 74 619 -10 b 69 393 219 -10 69 175 b 451 796 69 614 214 796 b 831 392 688 796 831 610 m 664 664 b 451 750 614 710 532 750 b 235 664 368 750 290 721 l 235 438 l 664 438 "},"≤":{"ha":864,"x_min":0,"x_max":0,"o":"m 82 132 l 764 132 l 764 0 l 82 0 m 746 858 l 763 858 l 763 707 l 276 536 l 763 365 l 763 214 l 746 214 l 83 467 l 83 604 "},"≥":{"ha":864,"x_min":0,"x_max":0,"o":"m 782 0 l 100 0 l 100 132 l 782 132 m 781 604 l 781 467 l 118 214 l 101 214 l 101 365 l 588 536 l 101 707 l 101 858 l 118 858 "},"¤":{"ha":747,"x_min":0,"x_max":0,"o":"m 372 318 b 501 453 443 318 501 379 b 372 589 501 529 443 589 b 243 453 303 589 243 529 b 372 318 243 379 303 318 m 372 194 b 243 228 325 194 281 206 l 161 149 l 69 243 l 147 319 b 111 454 125 358 111 404 b 146 582 111 500 124 543 b 71 657 135 593 82 647 l 165 751 l 238 678 b 372 714 276 701 322 714 b 508 678 424 714 468 701 l 581 751 l 674 657 b 600 582 664 647 610 593 b 633 454 621 543 633 500 b 597 319 633 404 621 358 l 676 243 l 583 149 l 503 228 b 372 194 464 206 419 194 "},"Æ":{"ha":1276,"x_min":0,"x_max":0,"o":"m 513 972 l 1208 972 l 1208 829 l 786 829 l 786 532 l 1157 532 l 1157 390 l 786 390 l 786 142 l 1208 142 l 1208 0 l 608 0 l 608 385 l 382 385 b 179 0 326 276 238 110 l -8 0 m 608 525 l 608 808 l 594 808 b 450 525 547 714 499 619 "},"Ǽ":{"ha":1276,"x_min":0,"x_max":0,"o":"m 513 972 l 1208 972 l 1208 829 l 786 829 l 786 532 l 1157 532 l 1157 390 l 786 390 l 786 142 l 1208 142 l 1208 0 l 608 0 l 608 385 l 382 385 b 179 0 326 276 238 110 l -8 0 m 608 525 l 608 808 l 594 808 b 450 525 547 714 499 619 m 964 1256 l 801 1051 l 669 1051 l 783 1256 "},"ǽ":{"ha":1293,"x_min":0,"x_max":0,"o":"m 874 1022 l 694 799 l 560 799 l 689 1022 m 331 436 b 535 406 404 436 475 425 l 535 426 b 374 572 535 535 447 572 b 153 500 333 572 242 569 l 89 614 b 386 718 167 693 286 718 b 642 604 525 718 600 669 b 903 718 703 678 794 718 b 1256 328 1093 718 1256 599 l 696 328 b 932 129 696 217 781 129 b 1126 215 1018 129 1071 161 l 1224 119 b 924 -15 1128 14 1031 -15 b 607 124 778 -15 672 39 b 321 -15 543 33 444 -15 b 40 215 172 -15 40 64 b 331 436 40 343 150 436 m 903 582 b 706 443 829 582 740 551 l 1079 443 b 903 582 1054 551 976 582 m 535 304 b 357 329 467 322 392 329 b 213 222 244 329 213 269 b 349 121 213 169 256 121 b 550 219 422 121 493 149 b 535 304 543 246 536 276 "},"®":{"ha":1108,"x_min":0,"x_max":0,"o":"m 581 504 b 636 571 615 504 636 535 b 581 644 636 603 614 644 l 497 644 l 497 504 m 756 571 b 656 422 756 500 721 444 b 763 235 693 361 733 300 l 638 235 l 544 411 l 497 411 l 497 235 l 379 235 l 379 739 l 594 739 b 756 571 699 739 756 661 m 64 486 b 554 988 64 763 278 988 b 1044 486 831 988 1044 763 b 554 -15 1044 210 831 -15 b 64 486 278 -15 64 210 m 156 486 b 554 76 156 260 329 76 b 953 486 778 76 953 260 b 554 896 953 711 778 896 b 156 486 329 896 156 711 "},"©":{"ha":1108,"x_min":0,"x_max":0,"o":"m 64 486 b 554 988 64 763 278 988 b 1044 486 831 988 1044 763 b 554 -15 1044 210 831 -15 b 64 486 278 -15 64 210 m 156 486 b 554 76 156 260 331 76 b 953 486 779 76 953 260 b 554 896 953 711 779 896 b 156 486 331 896 156 711 m 290 485 b 569 747 290 628 400 747 b 751 681 647 747 696 719 l 699 594 b 569 638 660 622 622 638 b 414 486 463 638 414 561 b 569 335 414 410 463 335 b 699 376 622 335 660 350 l 751 290 b 569 225 696 251 647 225 b 290 485 400 225 290 344 "},"™":{"ha":1236,"x_min":0,"x_max":0,"o":"m 513 1004 l 513 904 l 338 904 l 338 496 l 225 496 l 225 904 l 50 904 l 50 1004 m 1032 496 l 1004 794 l 882 507 l 800 507 l 676 794 l 650 496 l 538 496 l 588 1004 l 692 1004 l 840 651 l 986 1004 l 1096 1004 l 1142 496 "},"π":{"ha":942,"x_min":0,"x_max":0,"o":"m 632 213 b 700 128 632 169 647 128 b 769 200 742 128 769 157 b 760 258 769 215 767 243 l 900 258 b 915 179 913 232 915 192 b 693 -15 915 76 844 -15 b 461 228 576 -15 461 35 l 461 257 l 461 568 l 324 568 l 324 0 l 153 0 l 153 568 l 40 568 l 40 703 l 788 703 l 788 568 l 632 568 "},"◊":{"ha":821,"x_min":0,"x_max":0,"o":"m 471 0 l 350 0 l 47 474 l 349 974 l 471 974 l 774 474 m 410 801 l 210 472 l 410 164 l 611 474 "},"∏":{"ha":1025,"x_min":0,"x_max":0,"o":"m 840 -197 l 667 -197 l 667 835 l 360 835 l 360 -197 l 186 -197 l 186 835 l 50 835 l 50 972 l 975 972 l 975 835 l 840 835 "},"Ω":{"ha":1126,"x_min":0,"x_max":0,"o":"m 563 842 b 247 496 376 842 247 696 b 507 143 247 328 347 194 l 507 0 l 85 0 l 85 142 l 279 142 b 71 510 167 196 71 350 b 563 988 71 772 268 988 b 1056 510 860 988 1056 772 b 847 142 1056 351 958 197 l 1042 142 l 1042 0 l 618 0 l 618 143 b 879 496 775 194 879 329 b 563 842 879 696 751 842 "},"Ω":{"ha":1132,"x_min":0,"x_max":0,"o":"m 565 842 b 250 496 379 842 250 696 b 510 143 250 328 350 194 l 510 0 l 88 0 l 88 142 l 282 142 b 74 510 169 196 74 350 b 565 988 74 772 271 988 b 1058 510 863 988 1058 772 b 850 142 1058 351 961 197 l 1044 142 l 1044 0 l 621 0 l 621 143 b 882 496 778 194 882 329 b 565 842 882 696 754 842 "},"Δ":{"ha":1068,"x_min":0,"x_max":0,"o":"m 444 972 l 638 972 l 1007 0 l 57 0 m 292 142 l 775 142 l 539 786 "},"∆":{"ha":1029,"x_min":0,"x_max":0,"o":"m 426 972 l 619 972 l 989 0 l 39 0 m 274 142 l 757 142 l 521 786 "},"√":{"ha":778,"x_min":0,"x_max":0,"o":"m 378 189 l 400 103 l 421 206 l 619 1060 l 753 1060 l 474 -133 l 331 -133 l 139 422 l 47 383 l 1 492 l 240 601 "},"∑":{"ha":815,"x_min":0,"x_max":0,"o":"m 376 385 l 64 868 l 64 972 l 726 972 l 726 829 l 274 829 b 274 826 274 829 274 828 l 561 389 l 261 -53 b 261 -56 261 -53 261 -54 l 765 -56 l 765 -197 l 50 -197 l 50 -94 "},"∫":{"ha":728,"x_min":0,"x_max":0,"o":"m 450 -47 b 206 -333 450 -283 304 -333 b -3 -260 139 -333 60 -310 l 38 -114 b 183 -179 100 -167 156 -179 b 276 -60 226 -179 276 -151 l 276 765 b 521 1051 276 1001 422 1051 b 731 978 589 1051 668 1028 l 690 832 b 542 897 633 881 575 897 b 450 778 500 897 450 869 "},"μ":{"ha":853,"x_min":0,"x_max":0,"o":"m 97 703 l 268 703 l 268 300 b 404 129 268 190 322 129 b 585 351 504 129 585 203 l 585 703 l 756 703 l 756 0 l 585 0 l 585 118 b 357 -15 540 26 457 -15 b 261 1 322 -15 289 -8 l 261 -217 l 97 -217 "},"∙":{"ha":418,"x_min":0,"x_max":0,"o":"m 93 386 b 208 499 93 450 143 499 b 326 386 274 499 326 450 b 208 276 326 324 274 276 b 93 386 143 276 93 324 "},"≈":{"ha":892,"x_min":0,"x_max":0,"o":"m 800 583 b 617 492 751 514 689 492 b 282 564 501 492 379 564 b 139 507 240 564 178 553 l 93 628 b 274 717 135 688 196 717 b 611 643 394 717 526 643 b 751 699 657 643 713 657 m 799 231 b 614 138 749 160 688 138 b 279 211 501 138 378 211 b 138 154 239 211 176 200 l 90 275 b 272 363 132 333 194 363 b 608 290 393 363 525 290 b 750 346 654 290 711 303 "},"∞":{"ha":1188,"x_min":0,"x_max":0,"o":"m 210 417 b 329 308 210 344 264 308 b 447 367 372 308 406 328 l 501 417 l 446 468 b 329 525 403 508 374 525 b 210 417 264 525 210 489 m 1119 417 b 872 174 1119 264 1007 174 b 649 274 779 174 713 213 l 596 324 b 593 324 596 324 594 324 l 543 274 b 315 174 478 214 408 174 b 68 417 179 174 68 263 b 315 660 68 569 179 660 b 543 560 406 660 482 621 l 593 510 b 596 510 593 510 594 510 l 649 560 b 872 660 713 621 779 658 b 1119 417 1010 660 1119 569 m 979 415 b 861 525 979 488 922 525 b 686 415 799 525 761 485 l 743 364 b 861 308 785 326 818 308 b 979 415 924 308 979 344 "},"§":{"ha":832,"x_min":0,"x_max":0,"o":"m 118 33 b 419 -78 233 -54 340 -78 b 593 26 539 -78 593 -29 b 460 126 593 83 524 111 l 328 160 b 90 389 140 210 90 315 b 214 571 90 463 135 529 b 90 753 114 625 90 699 b 414 988 90 896 240 988 b 722 910 514 988 628 960 l 657 783 b 421 849 551 838 481 849 b 261 757 328 849 261 817 b 376 663 261 731 281 688 l 503 631 b 761 401 665 589 761 521 b 649 208 761 335 726 254 b 764 33 719 168 764 114 b 418 -217 764 -103 640 -217 b 57 -85 254 -217 128 -157 m 599 378 b 517 474 599 417 578 457 l 344 515 b 254 401 278 488 254 443 b 346 306 254 363 275 322 l 503 265 b 599 378 563 283 597 328 "},"£":{"ha":885,"x_min":0,"x_max":0,"o":"m 422 396 b 438 299 433 363 438 329 b 351 142 438 243 414 176 l 351 135 b 522 142 392 139 492 140 l 826 142 l 826 0 l 54 0 l 54 142 b 271 294 240 149 271 224 b 254 396 271 328 264 361 l 82 396 l 82 486 l 219 486 b 160 711 188 567 160 642 b 489 988 160 878 304 988 b 800 724 714 988 800 840 l 636 724 b 492 839 636 789 586 839 b 332 706 393 839 332 788 b 390 486 332 643 360 564 l 644 486 l 644 396 "},"₤":{"ha":892,"x_min":0,"x_max":0,"o":"m 443 306 b 358 142 443 275 433 178 l 358 135 b 529 142 399 139 499 140 l 833 142 l 833 0 l 61 0 l 61 142 b 275 306 260 142 275 238 l 89 306 l 89 396 l 261 396 b 231 476 251 422 240 449 l 89 476 l 89 567 l 196 567 b 167 711 179 614 167 664 b 496 988 167 878 311 988 b 807 724 721 988 807 840 l 643 724 b 499 839 643 789 593 839 b 339 706 400 839 339 788 b 367 567 339 663 351 613 l 651 567 l 651 476 l 400 476 b 429 396 411 449 419 422 l 651 396 l 651 306 "},"­":{"ha":749,"x_min":0,"x_max":0,"o":"m 90 526 l 658 526 l 658 381 l 90 381 "},"÷":{"ha":871,"x_min":0,"x_max":0,"o":"m 319 156 b 436 263 319 218 369 263 b 553 156 501 263 553 218 b 436 50 553 93 501 50 b 319 156 369 50 319 93 m 319 700 b 436 808 319 764 369 808 b 553 700 501 808 553 764 b 436 594 553 638 501 594 b 319 700 369 594 319 638 m 68 499 l 804 499 l 804 354 l 68 354 "},"?":{"ha":740,"x_min":0,"x_max":0,"o":"m 254 314 b 349 504 254 417 256 446 b 515 706 456 569 515 618 l 515 708 b 358 840 515 790 451 840 b 214 731 274 840 214 797 b 226 667 214 717 215 697 l 63 667 b 49 726 53 688 50 711 b 361 988 49 832 121 988 b 689 710 549 988 689 879 b 453 397 689 565 578 475 b 413 314 425 379 413 351 m 218 94 b 333 207 218 158 268 207 b 451 94 399 207 451 158 b 333 -15 451 32 399 -15 b 218 94 268 -15 218 32 "},"¿":{"ha":728,"x_min":0,"x_max":0,"o":"m 479 389 b 385 199 479 286 478 256 b 218 -3 278 132 218 83 b 375 -137 218 -87 281 -137 b 519 -26 460 -137 519 -94 b 507 36 519 -12 518 6 l 671 36 b 685 -22 681 15 683 -8 b 372 -283 685 -126 614 -283 b 44 -7 185 -283 44 -176 b 281 306 44 136 156 228 b 321 389 308 322 321 351 m 518 608 b 401 496 518 544 468 496 b 285 608 336 496 285 544 b 401 718 285 671 336 718 b 518 608 468 718 518 671 "},"×":{"ha":740,"x_min":0,"x_max":0,"o":"m 565 129 l 367 328 l 168 128 l 69 228 l 268 426 l 71 624 l 175 728 l 372 531 l 571 729 l 671 629 l 471 432 l 669 233 "},"@":{"ha":1424,"x_min":0,"x_max":0,"o":"m 1063 72 b 1239 390 1165 75 1239 169 b 715 890 1239 681 1028 890 b 178 339 406 890 178 651 b 692 -210 178 28 385 -210 b 969 -154 788 -210 894 -190 l 1021 -254 b 692 -324 928 -299 801 -324 b 60 339 313 -324 60 -40 b 715 1004 60 719 336 1004 b 1357 390 1099 1004 1357 750 b 1063 -32 1357 85 1235 -32 b 876 136 925 -32 881 38 b 651 24 831 60 735 24 b 357 339 478 24 357 164 b 657 653 357 513 476 653 b 867 549 733 653 810 628 l 867 639 l 993 639 l 993 153 b 1063 72 993 96 1026 72 m 483 339 b 675 136 483 226 557 136 b 865 336 783 136 865 213 b 672 540 865 454 789 540 b 483 339 551 540 483 449 "},"№":{"ha":1528,"x_min":0,"x_max":0,"o":"m 1015 764 b 1240 988 1015 889 1113 988 b 1464 764 1368 988 1464 889 b 1240 543 1464 640 1368 543 b 1015 764 1113 543 1015 640 m 1125 764 b 1240 646 1125 697 1172 646 b 1356 764 1308 646 1356 697 b 1240 886 1356 833 1308 886 b 1125 764 1172 886 1125 833 m 1022 461 l 1457 461 l 1457 367 l 1022 367 m 278 656 l 278 0 l 100 0 l 100 972 l 235 972 l 714 321 l 714 972 l 892 972 l 892 0 l 758 0 "}," ":{"ha":24,"x_min":0,"x_max":0,"o":""},"℗":{"ha":1108,"x_min":0,"x_max":0,"o":"m 600 497 b 656 565 635 497 656 528 b 600 638 656 601 635 638 l 517 638 l 517 497 m 517 403 l 517 229 l 399 229 l 399 732 l 614 732 b 775 565 718 732 775 654 b 614 403 775 472 714 403 m 64 486 b 554 988 64 763 278 988 b 1044 486 831 988 1044 763 b 554 -15 1044 210 831 -15 b 64 486 278 -15 64 210 m 156 486 b 554 76 156 260 329 76 b 953 486 778 76 953 260 b 554 896 953 711 778 896 b 156 486 329 896 156 711 "},"~":{"ha":828,"x_min":0,"x_max":0,"o":"m 749 438 b 558 299 719 354 646 299 b 274 399 439 299 379 399 b 153 318 224 399 174 374 l 81 417 b 268 553 101 489 172 553 b 551 451 372 553 456 451 b 674 533 608 451 647 479 "},"%":{"ha":1314,"x_min":0,"x_max":0,"o":"m 858 972 l 986 972 l 446 0 l 318 0 m 47 733 b 307 988 47 876 160 988 b 565 733 454 988 565 876 b 307 482 565 593 454 482 b 47 733 160 482 47 593 m 182 733 b 307 601 182 656 239 601 b 433 733 378 601 433 656 b 307 868 433 813 378 868 b 182 733 239 868 182 813 m 749 236 b 1008 489 749 379 861 489 b 1267 236 1156 489 1267 379 b 1008 -15 1267 94 1156 -15 b 749 236 861 -15 749 94 m 883 236 b 1008 104 883 158 940 104 b 1135 236 1079 104 1135 158 b 1008 371 1135 315 1079 371 b 883 236 940 371 883 315 "},"‰":{"ha":1929,"x_min":0,"x_max":0,"o":"m 858 972 l 986 972 l 446 0 l 318 0 m 47 733 b 307 988 47 876 160 988 b 565 733 454 988 565 876 b 307 482 565 593 454 482 b 47 733 160 482 47 593 m 182 733 b 307 601 182 656 239 601 b 433 733 378 601 433 656 b 307 868 433 813 378 868 b 182 733 239 868 182 813 m 749 236 b 1008 489 749 379 861 489 b 1267 236 1156 489 1267 379 b 1008 -15 1267 94 1156 -15 b 749 236 861 -15 749 94 m 883 236 b 1008 104 883 158 940 104 b 1135 236 1079 104 1135 158 b 1008 371 1135 315 1079 371 b 883 236 940 371 883 315 m 1365 236 b 1625 489 1365 379 1478 489 b 1883 236 1772 489 1883 379 b 1625 -15 1883 94 1772 -15 b 1365 236 1478 -15 1365 94 m 1500 236 b 1625 104 1500 158 1557 104 b 1751 236 1696 104 1751 158 b 1625 371 1751 315 1696 371 b 1500 236 1557 371 1500 315 "},"ª":{"ha":697,"x_min":0,"x_max":0,"o":"m 457 507 l 457 576 b 304 499 424 522 356 499 b 90 740 171 499 90 607 b 307 982 90 872 171 982 b 457 904 357 982 422 963 l 457 972 l 589 972 l 589 507 m 458 739 b 339 864 458 813 410 864 b 226 742 268 864 226 807 b 340 617 226 672 271 617 b 458 739 407 617 456 663 m 108 382 l 581 382 l 581 283 l 108 283 "},"º":{"ha":681,"x_min":0,"x_max":0,"o":"m 88 738 b 339 979 88 871 204 979 b 590 738 474 979 590 869 b 339 493 590 603 474 493 b 88 738 204 493 88 601 m 224 736 b 339 614 224 668 272 614 b 454 736 403 614 454 668 b 339 860 454 804 404 860 b 224 736 272 860 224 804 m 104 382 l 576 382 l 576 283 l 104 283 "},"O":{"ha":1131,"x_min":0,"x_max":0,"o":"m 57 486 b 565 988 57 763 288 988 b 1074 486 843 988 1074 763 b 565 -15 1074 210 843 -15 b 57 486 288 -15 57 210 m 238 486 b 565 146 238 290 386 146 b 893 486 744 146 893 290 b 565 826 893 682 744 826 b 238 486 386 826 238 682 "},"∂":{"ha":919,"x_min":0,"x_max":0,"o":"m 325 942 b 532 988 383 969 449 988 b 868 590 794 988 868 811 b 379 -15 868 257 701 -15 b 51 278 150 -15 51 122 b 438 624 51 496 244 624 b 694 524 540 624 636 588 b 703 597 701 564 703 574 b 507 839 703 750 642 839 b 381 808 465 839 422 831 m 464 481 b 225 289 306 481 225 396 b 396 135 225 185 303 135 b 672 386 522 135 640 228 b 464 481 592 474 508 481 "},"₀":{"ha":518,"x_min":0,"x_max":0,"o":"m 479 44 b 258 -210 479 -93 396 -210 b 39 44 122 -210 39 -93 b 258 299 39 183 122 299 b 479 44 396 299 479 183 m 369 44 b 258 204 369 138 328 204 b 149 44 190 204 149 138 b 258 -115 149 -46 190 -115 b 369 44 328 -115 369 -46 "},"₁":{"ha":314,"x_min":0,"x_max":0,"o":"m 11 207 l 196 289 l 257 289 l 257 -197 l 146 -197 l 146 171 l 39 125 "},"₂":{"ha":458,"x_min":0,"x_max":0,"o":"m 211 -114 b 282 -110 238 -111 278 -110 l 421 -110 l 421 -197 l 47 -197 l 36 -135 l 238 42 b 296 140 268 68 296 101 b 225 206 296 182 268 206 b 147 132 167 206 147 163 l 40 132 b 225 297 40 197 85 297 b 403 140 336 297 403 231 b 310 -26 403 67 357 14 "},"₃":{"ha":454,"x_min":0,"x_max":0,"o":"m 210 -119 b 304 -37 267 -119 304 -79 b 217 46 304 10 263 46 b 154 32 206 46 183 46 l 113 86 l 249 204 l 47 204 l 47 289 l 399 289 l 399 229 l 268 110 b 414 -37 356 100 414 39 b 208 -206 414 -129 339 -206 b 29 -146 143 -206 82 -193 l 85 -76 b 210 -119 129 -111 174 -119 "},"₄":{"ha":489,"x_min":0,"x_max":0,"o":"m 260 10 l 260 153 l 135 10 m 19 -72 l 19 -14 l 274 289 l 365 289 l 365 10 l 464 10 l 464 -72 l 365 -72 l 365 -197 l 256 -197 l 256 -72 "},"₅":{"ha":450,"x_min":0,"x_max":0,"o":"m 208 -119 b 307 -32 278 -119 307 -78 b 215 51 307 7 278 51 b 119 22 176 51 149 42 b 53 54 110 26 61 51 l 65 288 l 375 288 l 375 203 l 156 203 l 150 106 b 244 128 174 121 218 128 b 415 -32 343 128 415 54 b 211 -207 415 -135 342 -207 b 35 -146 154 -207 88 -193 l 89 -78 b 208 -119 133 -112 179 -119 "},"₆":{"ha":476,"x_min":0,"x_max":0,"o":"m 264 210 b 143 67 201 210 147 157 l 146 67 b 268 122 174 107 228 122 b 440 -42 354 122 440 63 b 249 -208 440 -137 360 -208 b 40 33 117 -208 40 -110 b 261 296 40 176 115 296 b 419 231 325 296 386 272 l 356 172 b 264 210 328 203 290 210 m 246 43 b 154 -39 189 43 154 7 b 246 -122 154 -87 192 -122 b 335 -40 297 -122 335 -92 b 246 43 335 10 300 43 "},"₇":{"ha":407,"x_min":0,"x_max":0,"o":"m 28 289 l 393 289 l 393 226 l 175 -197 l 57 -197 l 268 204 l 28 204 "},"₈":{"ha":485,"x_min":0,"x_max":0,"o":"m 244 89 b 321 153 294 89 321 122 b 243 213 321 189 289 213 b 164 153 196 213 164 189 b 244 89 164 121 190 89 m 242 21 b 143 -51 176 21 143 -15 b 243 -125 143 -92 185 -125 b 342 -51 300 -125 342 -92 b 242 21 342 -15 307 22 m 243 -208 b 38 -51 125 -208 38 -144 b 135 60 38 -7 75 44 b 60 153 86 76 60 118 b 243 294 60 236 136 294 b 426 153 349 294 426 236 b 350 60 426 118 399 76 b 447 -51 410 44 447 -7 b 243 -208 447 -144 360 -208 "},"₉":{"ha":478,"x_min":0,"x_max":0,"o":"m 214 -124 b 335 19 276 -124 331 -71 l 332 19 b 210 -36 304 -21 250 -36 b 38 128 124 -36 38 24 b 229 296 38 224 118 296 b 438 53 361 296 438 196 b 217 -208 438 -90 363 -208 b 58 -144 153 -208 92 -186 l 122 -86 b 214 -124 150 -117 188 -124 m 232 43 b 324 125 289 43 324 79 b 232 208 324 174 286 208 b 143 126 181 208 143 178 b 232 43 143 76 178 43 "},"₍":{"ha":290,"x_min":0,"x_max":0,"o":"m 151 39 b 247 -267 151 -100 214 -217 b 186 -307 226 -281 206 -293 b 49 39 142 -261 49 -126 b 186 386 49 204 142 340 l 247 344 b 151 39 214 294 151 178 "},"₎":{"ha":290,"x_min":0,"x_max":0,"o":"m 139 39 b 43 344 139 178 76 294 l 104 386 b 242 39 149 340 242 204 b 104 -307 242 -126 149 -261 b 43 -267 85 -293 64 -281 b 139 39 76 -217 139 -100 "},"":{"ha":250,"x_min":0,"x_max":0,"o":"m 54 -147 b 125 -85 54 -112 86 -85 b 196 -147 164 -85 196 -112 b 125 -210 196 -182 164 -210 b 54 -147 86 -210 54 -182 "},"":{"ha":400,"x_min":0,"x_max":0,"o":"m 58 82 l 342 82 l 342 -6 l 58 -6 "},"":{"ha":249,"x_min":0,"x_max":0,"o":"m 50 -275 b 122 -200 93 -261 118 -228 b 60 -147 85 -204 60 -175 b 122 -86 58 -115 79 -86 b 190 -161 178 -86 190 -136 b 74 -315 190 -229 149 -292 "},"":{"ha":432,"x_min":0,"x_max":0,"o":"m 203 -200 b 29 -65 113 -196 43 -143 l 118 -43 b 203 -118 126 -82 163 -112 l 203 3 l 174 14 b 51 153 79 50 51 103 b 203 289 51 232 117 283 l 203 340 l 240 340 l 240 289 b 383 176 311 281 361 240 l 301 142 b 240 206 289 179 265 197 l 240 90 b 268 81 250 86 258 83 b 397 -57 356 49 397 -12 b 240 -199 397 -144 326 -193 l 240 -253 l 203 -253 m 154 154 b 203 104 154 138 161 119 l 203 208 b 154 154 176 201 154 183 m 293 -61 b 240 -11 293 -36 268 -22 l 240 -115 b 293 -61 274 -108 293 -89 "},"":{"ha":418,"x_min":0,"x_max":0,"o":"m 292 293 l 279 218 b 383 171 315 211 346 197 l 340 101 b 267 136 311 126 282 133 l 236 -62 b 336 -25 258 -62 293 -62 l 386 -96 b 235 -149 331 -136 281 -149 b 222 -147 231 -149 226 -149 l 213 -207 l 164 -207 l 174 -140 b 35 38 89 -117 35 -49 b 207 218 35 133 101 203 l 235 222 b 246 293 238 246 242 269 m 142 38 b 190 -49 142 1 161 -31 l 218 135 b 142 38 175 124 142 85 "},"⁰":{"ha":518,"x_min":0,"x_max":0,"o":"m 479 849 b 258 594 479 711 396 594 b 39 849 122 594 39 711 b 258 1103 39 988 122 1103 b 479 849 396 1103 479 988 m 369 849 b 258 1008 369 942 328 1008 b 149 849 190 1008 149 942 b 258 689 149 758 190 689 b 369 849 328 689 369 758 "},"⁴":{"ha":486,"x_min":0,"x_max":0,"o":"m 258 814 l 258 957 l 133 814 m 18 732 l 18 790 l 272 1093 l 364 1093 l 364 814 l 463 814 l 463 732 l 364 732 l 364 607 l 254 607 l 254 732 "},"⁵":{"ha":450,"x_min":0,"x_max":0,"o":"m 208 685 b 307 772 278 685 307 726 b 215 856 307 811 278 856 b 119 826 176 856 149 846 b 53 858 110 831 61 856 l 65 1092 l 375 1092 l 375 1007 l 156 1007 l 150 910 b 244 932 174 925 218 932 b 415 772 343 932 415 858 b 211 597 415 669 342 597 b 35 658 154 597 88 611 l 89 726 b 208 685 133 692 179 685 "},"⁶":{"ha":476,"x_min":0,"x_max":0,"o":"m 264 1014 b 143 871 201 1014 147 961 l 146 871 b 268 926 174 911 228 926 b 440 763 354 926 440 867 b 249 596 440 667 360 596 b 40 838 117 596 40 694 b 261 1100 40 981 115 1100 b 419 1035 325 1100 386 1076 l 356 976 b 264 1014 328 1007 290 1014 m 246 847 b 154 765 189 847 154 811 b 246 682 154 717 192 682 b 335 764 297 682 335 713 b 246 847 335 814 300 847 "},"⁷":{"ha":414,"x_min":0,"x_max":0,"o":"m 31 1093 l 396 1093 l 396 1031 l 178 607 l 60 607 l 271 1008 l 31 1008 "},"⁸":{"ha":485,"x_min":0,"x_max":0,"o":"m 244 893 b 321 957 294 893 321 926 b 243 1017 321 993 289 1017 b 164 957 196 1017 164 993 b 244 893 164 925 190 893 m 242 825 b 143 753 176 825 143 789 b 243 679 143 713 185 679 b 342 753 300 679 342 713 b 242 825 342 789 307 826 m 243 596 b 38 753 125 596 38 660 b 135 864 38 797 75 849 b 60 957 86 881 60 922 b 243 1099 60 1040 136 1099 b 426 957 349 1099 426 1040 b 350 864 426 922 399 881 b 447 753 410 849 447 797 b 243 596 447 660 360 596 "},"⁹":{"ha":476,"x_min":0,"x_max":0,"o":"m 213 681 b 333 824 275 681 329 733 l 331 824 b 208 768 303 783 249 768 b 36 932 122 768 36 828 b 228 1100 36 1028 117 1100 b 436 857 360 1100 436 1000 b 215 596 436 714 361 596 b 57 660 151 596 90 618 l 121 718 b 213 681 149 688 186 681 m 231 847 b 322 929 288 847 322 883 b 231 1013 322 978 285 1013 b 142 931 179 1013 142 982 b 231 847 142 881 176 847 "},"⁾":{"ha":288,"x_min":0,"x_max":0,"o":"m 136 843 b 42 1149 136 982 75 1099 l 103 1189 b 240 843 146 1144 240 1010 b 103 497 240 678 147 543 b 42 538 83 511 63 524 b 136 843 75 588 136 704 "},"":{"ha":247,"x_min":0,"x_max":0,"o":"m 53 657 b 124 719 53 692 85 719 b 194 657 163 719 194 692 b 124 594 194 622 163 594 b 53 657 85 594 53 622 "},"":{"ha":400,"x_min":0,"x_max":0,"o":"m 58 886 l 342 886 l 342 799 l 58 799 "},"":{"ha":249,"x_min":0,"x_max":0,"o":"m 51 529 b 124 604 94 543 119 576 b 61 657 86 600 61 629 b 124 718 60 689 81 718 b 192 643 179 718 192 668 b 75 489 192 575 150 513 "},"":{"ha":433,"x_min":0,"x_max":0,"o":"m 203 604 b 29 739 113 608 43 661 l 118 761 b 203 686 126 722 163 692 l 203 807 l 174 818 b 51 957 79 854 51 907 b 203 1093 51 1036 117 1088 l 203 1144 l 240 1144 l 240 1093 b 383 981 311 1085 361 1044 l 301 946 b 240 1010 289 983 265 1001 l 240 894 b 268 885 250 890 258 888 b 397 747 356 853 397 792 b 240 606 397 660 326 611 l 240 551 l 203 551 m 154 958 b 203 908 154 942 161 924 l 203 1013 b 154 958 176 1006 154 988 m 293 743 b 240 793 293 768 268 782 l 240 689 b 293 743 274 696 293 715 "},"":{"ha":418,"x_min":0,"x_max":0,"o":"m 292 1106 l 279 1031 b 383 983 315 1024 346 1010 l 340 914 b 267 949 311 939 282 946 l 236 750 b 336 788 258 750 293 750 l 386 717 b 235 664 331 676 281 664 b 222 665 231 664 226 664 l 213 606 l 164 606 l 174 672 b 35 850 89 696 35 764 b 207 1031 35 946 101 1015 l 235 1035 b 246 1106 238 1058 242 1082 m 142 850 b 190 764 142 814 161 782 l 218 947 b 142 850 175 936 142 897 "},"¼":{"ha":1163,"x_min":0,"x_max":0,"o":"m 257 -54 l 129 -54 l 888 1021 l 1017 1021 m 44 890 l 229 972 l 290 972 l 290 486 l 179 486 l 179 854 l 72 808 m 907 207 l 907 350 l 782 207 m 667 125 l 667 183 l 921 486 l 1013 486 l 1013 207 l 1111 207 l 1111 125 l 1013 125 l 1013 0 l 903 0 l 903 125 "},"¹":{"ha":315,"x_min":0,"x_max":0,"o":"m 11 1011 l 196 1093 l 257 1093 l 257 607 l 146 607 l 146 975 l 39 929 "},"²":{"ha":461,"x_min":0,"x_max":0,"o":"m 213 690 b 283 694 239 693 279 694 l 422 694 l 422 607 l 49 607 l 38 669 l 239 846 b 297 944 269 872 297 906 b 226 1010 297 986 269 1010 b 149 936 168 1010 149 967 l 42 936 b 226 1101 42 1001 86 1101 b 404 944 338 1101 404 1035 b 311 778 404 871 358 818 "},"³":{"ha":457,"x_min":0,"x_max":0,"o":"m 213 685 b 307 767 269 685 307 725 b 219 850 307 814 265 850 b 157 836 208 850 186 850 l 115 890 l 251 1008 l 50 1008 l 50 1093 l 401 1093 l 401 1033 l 271 914 b 417 767 358 904 417 843 b 211 599 417 675 342 599 b 32 658 146 599 85 611 l 88 728 b 213 685 132 693 176 685 "},"⁽":{"ha":288,"x_min":0,"x_max":0,"o":"m 151 843 b 246 538 151 704 213 588 b 185 497 225 524 204 511 b 47 843 140 543 47 678 b 185 1189 47 1010 142 1144 l 246 1149 b 151 843 213 1099 151 982 "},"½":{"ha":1213,"x_min":0,"x_max":0,"o":"m 257 -54 l 129 -54 l 888 1021 l 1017 1021 m 44 890 l 229 972 l 290 972 l 290 486 l 179 486 l 179 854 l 72 808 m 947 83 b 1018 88 974 86 1014 88 l 1157 88 l 1157 0 l 783 0 l 772 63 l 974 239 b 1032 338 1004 265 1032 299 b 961 403 1032 379 1004 403 b 883 329 903 403 883 360 l 776 329 b 961 494 776 394 821 494 b 1139 338 1072 494 1139 428 b 1046 171 1139 264 1093 211 "},"¾":{"ha":1226,"x_min":0,"x_max":0,"o":"m 325 -54 l 197 -54 l 956 1021 l 1085 1021 m 975 207 l 975 350 l 850 207 m 735 125 l 735 183 l 989 486 l 1081 486 l 1081 207 l 1179 207 l 1179 125 l 1081 125 l 1081 0 l 971 0 l 971 125 m 232 564 b 326 646 289 564 326 604 b 239 729 326 693 285 729 b 176 715 228 729 206 729 l 135 769 l 271 888 l 69 888 l 69 972 l 421 972 l 421 913 l 290 793 b 436 646 378 783 436 722 b 231 478 436 554 361 478 b 51 538 165 478 104 490 l 107 607 b 232 564 151 572 196 564 "},"ﬀ":{"ha":1072,"x_min":0,"x_max":0,"o":"m 854 703 l 1025 703 l 1025 572 l 854 572 l 854 0 l 681 0 l 681 572 l 318 572 l 318 0 l 144 0 l 144 572 l 40 572 l 40 703 l 144 703 l 144 750 b 389 1018 144 965 271 1018 b 601 869 517 1018 583 951 l 464 819 b 396 876 460 857 433 876 b 318 776 353 876 318 843 l 318 703 l 681 703 l 681 750 b 925 1018 681 965 807 1018 b 1142 825 1076 1018 1142 926 b 1135 786 1142 821 1140 800 l 997 786 b 1001 810 1000 793 1001 803 b 932 876 1001 854 974 876 b 854 776 889 876 854 843 "},"ﬁ":{"ha":931,"x_min":0,"x_max":0,"o":"m 144 703 l 144 746 b 447 1018 144 975 308 1018 b 719 849 551 1018 678 972 b 556 803 719 849 556 804 b 447 876 538 854 485 876 b 318 746 389 876 318 854 l 318 703 l 831 703 l 831 0 l 660 0 l 660 572 l 318 572 l 318 0 l 144 0 l 144 572 l 40 572 l 40 703 "},"ﬂ":{"ha":907,"x_min":0,"x_max":0,"o":"m 40 572 l 40 703 l 144 703 l 144 746 b 486 1018 144 975 311 1018 b 807 926 590 1018 707 992 l 807 0 l 636 0 l 636 842 b 475 876 579 872 504 876 b 318 751 399 876 318 860 l 318 703 l 489 703 l 489 572 l 318 572 l 318 0 l 144 0 l 144 572 "},"ﬃ":{"ha":1467,"x_min":0,"x_max":0,"o":"m 681 746 b 983 1018 681 975 844 1018 b 1256 849 1088 1018 1214 972 b 1092 803 1256 849 1092 804 b 983 876 1074 854 1021 876 b 854 746 925 876 854 854 l 854 703 l 1367 703 l 1367 0 l 1196 0 l 1196 572 l 854 572 l 854 0 l 681 0 l 681 572 l 318 572 l 318 0 l 144 0 l 144 572 l 40 572 l 40 703 l 144 703 l 144 750 b 447 1018 144 975 308 1018 b 651 921 528 1018 599 990 l 543 826 b 447 876 519 861 478 876 b 318 746 389 876 318 854 l 318 703 l 681 703 l 681 746 "},"ﬄ":{"ha":1443,"x_min":0,"x_max":0,"o":"m 854 0 l 681 0 l 681 572 l 318 572 l 318 0 l 144 0 l 144 572 l 40 572 l 40 703 l 144 703 l 144 750 b 447 1018 144 975 308 1018 b 651 921 528 1018 599 990 l 543 826 b 447 876 519 861 478 876 b 318 746 389 876 318 854 l 318 703 l 681 703 l 681 746 b 1022 1018 681 975 847 1018 b 1343 926 1126 1018 1243 992 l 1343 0 l 1172 0 l 1172 842 b 1011 876 1115 872 1040 876 b 854 751 935 876 854 860 l 854 703 l 1025 703 l 1025 572 l 854 572 "},"⁄":{"ha":208,"x_min":0,"x_max":0,"o":"m -212 -54 l -340 -54 l 418 1021 l 547 1021 "},"Q":{"ha":1133,"x_min":0,"x_max":0,"o":"m 239 486 b 567 146 239 290 388 146 b 894 486 746 146 894 290 b 567 826 894 682 746 826 b 239 486 388 826 239 682 m 669 -4 b 825 -128 681 -83 733 -128 b 971 -81 865 -128 935 -107 l 1029 -206 b 813 -274 972 -249 893 -274 b 500 -11 617 -274 517 -144 b 57 486 256 22 57 232 b 567 988 57 763 289 988 b 1076 486 844 988 1076 763 b 669 -4 1076 246 894 44 "},"æ":{"ha":1293,"x_min":0,"x_max":0,"o":"m 331 436 b 535 406 404 436 475 425 l 535 426 b 374 572 535 535 447 572 b 153 500 333 572 242 569 l 89 614 b 386 718 167 693 286 718 b 642 604 525 718 600 669 b 903 718 703 678 794 718 b 1256 328 1093 718 1256 599 l 696 328 b 932 129 696 217 781 129 b 1126 215 1018 129 1071 161 l 1224 119 b 924 -15 1128 14 1031 -15 b 607 124 778 -15 672 39 b 321 -15 543 33 444 -15 b 40 215 172 -15 40 64 b 331 436 40 343 150 436 m 903 582 b 706 443 829 582 740 551 l 1079 443 b 903 582 1054 551 976 582 m 535 304 b 357 329 467 322 392 329 b 213 222 244 329 213 269 b 349 121 213 169 256 121 b 550 219 422 121 493 149 b 535 304 543 246 536 276 "},"Ț":{"ha":831,"x_min":0,"x_max":0,"o":"m 803 972 l 803 829 l 503 829 l 503 0 l 469 0 b 549 -151 528 -49 549 -108 b 367 -312 549 -272 442 -312 b 168 -160 267 -312 196 -244 b 250 -119 194 -146 224 -133 b 351 -197 276 -175 314 -197 b 425 -121 393 -197 425 -167 b 360 0 425 -94 414 -39 l 325 0 l 325 829 l 28 829 l 28 972 "},"←":{"ha":914,"x_min":0,"x_max":0,"o":"m 789 285 l 314 285 l 460 117 l 361 31 l 94 336 l 94 367 l 361 674 l 461 589 l 314 418 l 789 418 "},"↑":{"ha":807,"x_min":0,"x_max":0,"o":"m 338 13 l 338 488 l 167 340 l 82 440 l 389 707 l 419 707 l 725 440 l 639 342 l 471 488 l 471 13 "},"→":{"ha":914,"x_min":0,"x_max":0,"o":"m 125 418 l 600 418 l 453 589 l 553 674 l 819 367 l 819 336 l 553 31 l 454 117 l 600 285 l 125 285 "},"↓":{"ha":810,"x_min":0,"x_max":0,"o":"m 472 707 l 472 232 l 640 378 l 726 279 l 421 13 l 390 13 l 83 279 l 168 379 l 339 232 l 339 707 "},"₪":{"ha":1122,"x_min":0,"x_max":0,"o":"m 258 0 b 92 0 258 0 92 0 l 92 747 l 499 747 b 785 469 672 747 785 624 l 785 253 b 618 253 785 253 618 253 l 618 469 b 499 581 618 531 571 581 l 258 581 m 864 747 b 1031 747 864 747 1031 747 l 1031 0 l 624 0 b 338 278 450 0 338 124 l 338 494 b 504 494 338 494 504 494 l 504 278 b 624 167 504 217 551 167 l 864 167 "},"₩":{"ha":1450,"x_min":0,"x_max":0,"o":"m 57 703 l 156 703 l 72 972 l 251 972 l 335 703 l 583 703 l 658 940 l 794 940 l 868 703 l 1117 703 l 1200 972 l 1379 972 l 1294 703 l 1393 703 l 1393 615 l 1267 615 l 1240 532 l 1393 532 l 1393 444 l 1214 444 l 1075 0 l 931 0 l 726 660 l 522 0 l 376 0 l 236 444 l 58 444 l 58 532 l 210 532 l 183 615 l 57 615 m 388 532 l 531 532 l 557 615 l 361 615 m 921 532 l 1064 532 l 1089 615 l 896 615 m 458 304 l 503 444 l 414 444 m 993 304 l 1036 444 l 949 444 "},"₨":{"ha":961,"x_min":0,"x_max":0,"o":"m 76 718 l 556 718 b 414 825 538 782 485 826 l 76 825 l 76 972 l 892 972 l 892 876 l 667 876 b 739 718 706 833 729 778 l 892 718 l 892 622 l 742 622 b 526 367 729 497 650 397 b 699 139 543 263 596 139 b 806 182 740 139 779 157 l 868 60 b 674 -15 813 11 756 -15 b 364 357 444 -15 374 246 l 76 357 l 76 499 l 414 499 b 560 622 492 499 546 547 l 76 622 "},"":{"ha":1847,"x_min":0,"x_max":0,"o":"m 496 499 b 646 661 588 499 646 565 b 496 825 646 756 586 825 l 282 825 l 282 499 m 826 660 b 608 367 826 518 744 401 b 781 139 625 263 678 139 b 888 182 822 139 861 157 l 950 60 b 756 -15 894 11 838 -15 b 446 357 526 -15 456 246 l 282 357 l 282 0 l 104 0 l 104 972 l 524 972 b 826 660 717 972 826 826 m 1042 -318 l 1042 703 l 1213 703 l 1213 597 b 1453 718 1263 674 1350 718 b 1797 349 1661 718 1797 554 b 1451 -15 1797 150 1667 -15 b 1213 104 1357 -15 1269 24 l 1213 -318 m 1625 350 b 1418 575 1625 475 1546 575 b 1208 357 1301 575 1208 496 b 1422 128 1208 221 1296 128 b 1625 350 1551 128 1625 229 "}}}
